<svg width="49" height="49" viewBox="0 0 49 49" fill="none" xmlns="http://www.w3.org/2000/svg">
<g filter="url(#filter0_d_352_5107)">
<rect x="4" y="4" width="41" height="41" rx="20.5" fill="#F8F8F8" shape-rendering="crispEdges"/>
<path d="M31.3304 35.0546C30.0058 36.3392 28.5596 36.1364 27.1675 35.5278C25.6942 34.9058 24.3426 34.8788 22.7882 35.5278C20.8419 36.3662 19.8147 36.1228 18.6523 35.0546C12.0564 28.2527 13.0296 17.8944 20.5175 17.5157C22.3422 17.6104 23.6127 18.5164 24.6805 18.5975C26.2754 18.273 27.8027 17.3399 29.5057 17.4616C31.5467 17.6239 33.0875 18.4353 34.1012 19.8957C29.8842 22.4244 30.8844 27.9822 34.75 29.5373C33.9796 31.5657 32.9794 33.5806 31.3169 35.0681L31.3304 35.0546ZM24.5453 17.4346C24.3426 14.4191 26.789 11.9309 29.6004 11.6875C29.9923 15.1763 26.4376 17.7727 24.5453 17.4346Z" fill="#8E8E8E"/>
</g>
<defs>
<filter id="filter0_d_352_5107" x="0" y="0" width="49" height="49" filterUnits="userSpaceOnUse" color-interpolation-filters="sRGB">
<feFlood flood-opacity="0" result="BackgroundImageFix"/>
<feColorMatrix in="SourceAlpha" type="matrix" values="0 0 0 0 0 0 0 0 0 0 0 0 0 0 0 0 0 0 127 0" result="hardAlpha"/>
<feOffset/>
<feGaussianBlur stdDeviation="2"/>
<feComposite in2="hardAlpha" operator="out"/>
<feColorMatrix type="matrix" values="0 0 0 0 0 0 0 0 0 0 0 0 0 0 0 0 0 0 0.5 0"/>
<feBlend mode="normal" in2="BackgroundImageFix" result="effect1_dropShadow_352_5107"/>
<feBlend mode="normal" in="SourceGraphic" in2="effect1_dropShadow_352_5107" result="shape"/>
</filter>
</defs>
</svg>
