<svg width="20" height="20" viewBox="0 0 20 20" fill="none" xmlns="http://www.w3.org/2000/svg">
<path d="M6.52005 10.8333L10.6034 14.9167C10.7701 15.0833 10.8501 15.2778 10.8434 15.5C10.8367 15.7222 10.7498 15.9167 10.5826 16.0833C10.4159 16.2361 10.2214 16.3161 9.99922 16.3233C9.777 16.3306 9.58255 16.2506 9.41588 16.0833L3.91588 10.5833C3.83255 10.5 3.77338 10.4097 3.73838 10.3125C3.70338 10.2153 3.68644 10.1111 3.68755 10C3.68866 9.88889 3.70616 9.78472 3.74005 9.6875C3.77394 9.59028 3.83283 9.5 3.91672 9.41667L9.41672 3.91667C9.5695 3.76389 9.76061 3.6875 9.99005 3.6875C10.2195 3.6875 10.4173 3.76389 10.5834 3.91667C10.7501 4.08333 10.8334 4.28139 10.8334 4.51083C10.8334 4.74028 10.7501 4.93806 10.5834 5.10417L6.52005 9.16667H15.8326C16.0687 9.16667 16.2667 9.24667 16.4267 9.40667C16.5867 9.56667 16.6664 9.76444 16.6659 10C16.6653 10.2356 16.5853 10.4336 16.4259 10.5942C16.2664 10.7547 16.0687 10.8344 15.8326 10.8333H6.52005Z" fill="black"/>
</svg>
