<svg width="216" height="181" viewBox="0 0 216 181" fill="none" xmlns="http://www.w3.org/2000/svg">
<g clip-path="url(#clip0_431_1355)">
<rect y="27" width="216" height="154" rx="20" fill="#9BD582"/>
<path d="M50.3566 227.653C64.012 206.754 69.3256 192.044 73.9817 166.848L90.3022 230.16C91.1317 233.378 88.6498 236.494 85.3281 236.406L54.4282 235.588C50.4501 235.482 48.1799 230.985 50.3566 227.653Z" fill="#E95C26"/>
<path d="M163.003 227.345C149.347 206.446 144.034 191.735 139.378 166.539L123.057 229.851C122.228 233.069 124.71 236.186 128.031 236.098L158.931 235.279C162.909 235.174 165.179 230.676 163.003 227.345Z" fill="#E95C26"/>
<path d="M91.9363 163.625L78.6617 179.637C78.6617 179.637 23.9282 153.693 38.0056 134.653C52.2191 115.429 91.9363 163.625 91.9363 163.625Z" fill="#62AF41"/>
<path d="M122.634 165.357C122.634 165.357 157.688 115.96 173.995 133.13C190.459 150.466 136.098 181.211 136.098 181.211L122.634 165.357Z" fill="#62AF41"/>
<path d="M122.634 165.357C122.634 165.357 157.688 115.96 173.995 133.13C190.459 150.466 136.098 181.211 136.098 181.211L122.634 165.357Z" stroke="black"/>
<path d="M82.97 152.902H130.389C130.389 152.902 143.955 178.95 135.968 192.263C129.202 203.543 119.058 207.505 105.905 207.45C92.8595 207.395 82.7387 203.524 76.1516 192.263C68.2743 178.798 82.97 152.902 82.97 152.902Z" fill="#A0D248"/>
<path d="M83.2485 151.051H129.527C131.839 155.83 134.129 161.168 134.045 161.455C134.045 161.455 119.87 165.321 105.437 165.308C91.6294 165.295 78.5068 162.255 78.5068 162.255L83.2485 151.051Z" fill="#E95C26"/>
<path d="M87.1982 5.42334C88.9553 2.93207 92.3627 2.2537 94.9375 3.89404C97.5629 5.56679 99.6234 7.31461 101.31 9.52979C102.942 11.6746 104.18 14.2025 105.27 17.4146C108.65 14.4888 111.685 12.551 114.91 11.522C118.225 10.4643 121.63 10.4018 125.653 11.0581C128.664 11.5493 130.741 14.3179 130.419 17.3354C129.987 21.3765 129.097 24.636 127.34 28.6382C157.48 36.689 179.688 61.0428 179.688 90.2954C179.687 108.347 169.972 124.618 156.097 137.326C142.21 150.044 123.926 159.422 106.18 163.7L105.603 163.838L105.023 163.704C87.4175 159.58 69.1304 150.197 55.207 137.442C41.2974 124.7 31.5001 108.35 31.5 90.2954C31.5 60.9293 53.8806 36.5003 84.1992 28.5454C83.9345 28.0852 83.7276 27.5826 83.5938 27.0425C82.4951 22.6101 82.1538 18.9202 82.7344 15.4487C83.3167 11.9675 84.8075 8.81322 87.1982 5.42334Z" fill="#62AF41"/>
<path d="M65.1192 125.288L93.2669 141.778C101.071 146.351 110.737 146.351 118.542 141.778L146.689 125.288C157.712 118.83 160.754 104.271 153.241 93.9392C147.029 85.3979 135.553 82.5995 126.106 87.3226L117.085 91.8334C110.046 95.3525 101.762 95.3525 94.7239 91.8334L85.7023 87.3226C76.256 82.5995 64.7796 85.3979 58.5678 93.9392C51.0541 104.271 54.0968 118.83 65.1192 125.288Z" fill="#FFD8BD"/>
<circle cx="69.9518" cy="121.289" r="3.0993" fill="#FFA3A3"/>
<circle cx="143.095" cy="121.289" r="3.0993" fill="#FFA3A3"/>
<ellipse cx="80.4891" cy="107.343" rx="7.43832" ry="10.2277" fill="black"/>
<circle cx="82.0387" cy="103.005" r="2.16951" fill="white"/>
<circle cx="84.2085" cy="107.031" r="1.23972" fill="white"/>
<ellipse cx="7.43832" cy="10.2277" rx="7.43832" ry="10.2277" transform="matrix(-1 0 0 1 139.996 97.1133)" fill="black"/>
<circle cx="2.16951" cy="2.16951" r="2.16951" transform="matrix(-1 0 0 1 133.178 100.834)" fill="white"/>
<circle cx="1.23972" cy="1.23972" r="1.23972" transform="matrix(-1 0 0 1 130.078 105.792)" fill="white"/>
<path d="M94.6585 129.374C93.5888 126.769 95.8316 124.388 98.6473 124.388H113.781C116.596 124.388 118.839 126.769 117.769 129.374C116.354 132.82 113.207 136.785 106.214 136.785C99.2211 136.785 96.0735 132.82 94.6585 129.374Z" fill="black"/>
<path d="M99.5098 127.016C99.1294 125.954 100.017 125.008 101.145 125.008H110.662C111.789 125.008 112.677 125.954 112.297 127.016C111.648 128.826 110.014 131.206 105.903 131.206C101.793 131.206 100.158 128.826 99.5098 127.016Z" fill="white"/>
<path d="M102.024 134.115C101.578 134.952 102.224 135.836 103.156 136.013C105.357 136.431 107.049 136.436 109.275 136.014C110.206 135.837 110.851 134.953 110.406 134.117C109.871 133.113 108.715 131.99 106.214 131.99C103.716 131.99 102.559 133.111 102.024 134.115Z" fill="#FF0000"/>
<circle cx="82.6593" cy="55.8942" r="10.2277" fill="black"/>
<circle cx="78.6296" cy="52.4846" r="3.0993" fill="white"/>
<circle cx="10.2277" cy="10.2277" r="10.2277" transform="matrix(-1 0 0 1 138.756 45.6665)" fill="black"/>
<circle cx="124.499" cy="52.4863" r="3.0993" fill="white"/>
<path d="M105.594 64.1401C108.23 64.1401 110.652 65.5316 112.43 67.8481C114.208 70.1652 115.321 73.3877 115.321 76.9673C115.321 80.5469 114.208 83.7694 112.43 86.0864C110.652 88.403 108.23 89.7944 105.594 89.7944C102.957 89.7944 100.537 88.4028 98.7588 86.0864C96.9806 83.7694 95.8662 80.5469 95.8662 76.9673C95.8662 73.3876 96.9806 70.1652 98.7588 67.8481C100.537 65.5317 102.957 64.1402 105.594 64.1401Z" fill="#EF8D2F" stroke="black"/>
<path d="M105.594 64.1401C108.23 64.1401 110.652 65.5316 112.43 67.8481C114.208 70.1652 115.321 73.3877 115.321 76.9673C115.321 78.7931 115.029 79.6972 114.646 80.1255C114.304 80.5062 113.784 80.6155 112.906 80.4731C112.018 80.329 110.979 79.9681 109.71 79.6128C108.473 79.2664 107.075 78.9468 105.594 78.9468C104.113 78.9468 102.715 79.2664 101.478 79.6128C100.209 79.9681 99.1708 80.329 98.2822 80.4731C97.4045 80.6155 96.8832 80.5062 96.542 80.1255C96.1584 79.6972 95.8662 78.7929 95.8662 76.9673C95.8662 73.3876 96.9806 70.1652 98.7588 67.8481C100.537 65.5317 102.957 64.1402 105.594 64.1401Z" fill="#EF8D2F" stroke="black"/>
<path d="M102.817 66.6569C100.897 68.1563 99.9312 69.4372 98.8789 71.7012C98.6769 72.1358 98.9997 72.6273 99.4789 72.6273C99.7922 72.6273 100.061 72.4084 100.141 72.1053C100.75 69.7793 101.749 68.8044 103.452 67.4976C103.74 67.2765 103.728 66.8376 103.426 66.6362C103.24 66.5119 102.994 66.5191 102.817 66.6569Z" fill="white"/>
<rect x="84.8291" y="171.496" width="41.5306" height="15.4965" rx="7.74825" fill="#D9D9D9"/>
<rect x="84.8291" y="171.496" width="41.5306" height="15.4965" rx="7.74825" stroke="black"/>
<path d="M169.501 90.8888C177.731 94.5668 190.63 93.4832 190.63 93.4832C190.63 93.4832 203.755 93.3976 211.76 96.0777L208.624 121.618C201.088 117.237 187.494 119.023 187.494 119.023C187.494 119.023 174.419 119.053 166.365 116.429L169.501 90.8888Z" fill="#FFE887"/>
<rect x="168.418" y="90.0015" width="1.18269" height="56.7693" rx="0.591347" transform="rotate(7 168.418 90.0015)" fill="#FFE887"/>
<path d="M176.252 101.714L181.324 102.337L181.196 103.379L176.124 102.757L176.252 101.714ZM175.386 107.945L175.379 106.856C175.908 106.921 176.488 106.989 177.117 107.06C177.754 107.124 178.402 107.181 179.061 107.228C179.728 107.269 180.37 107.291 180.987 107.293L180.94 108.254C180.305 108.284 179.657 108.285 178.995 108.257C178.34 108.231 177.704 108.19 177.086 108.134C176.475 108.072 175.909 108.01 175.386 107.945ZM176.935 102.635L178.215 102.792L177.646 107.427L176.366 107.27L176.935 102.635ZM179.158 102.908L180.429 103.063L179.86 107.699L178.589 107.543L179.158 102.908ZM182.102 101.576L183.432 101.74L182.304 110.931L180.974 110.767L182.102 101.576ZM182.718 105.178L184.336 105.377L184.202 106.469L182.584 106.27L182.718 105.178ZM191.672 102.731L192.992 102.893L191.86 112.114L190.54 111.952L191.672 102.731ZM187.96 102.93C188.43 102.988 188.83 103.175 189.161 103.491C189.492 103.8 189.73 104.216 189.874 104.737C190.026 105.253 190.061 105.845 189.979 106.513C189.896 107.188 189.718 107.761 189.445 108.231C189.18 108.695 188.849 109.041 188.452 109.267C188.055 109.487 187.622 109.569 187.152 109.511C186.689 109.454 186.292 109.271 185.96 108.962C185.63 108.646 185.389 108.23 185.237 107.714C185.093 107.193 185.062 106.594 185.145 105.92C185.227 105.251 185.401 104.685 185.666 104.22C185.939 103.75 186.273 103.405 186.67 103.185C187.067 102.958 187.497 102.873 187.96 102.93ZM187.813 104.131C187.588 104.104 187.38 104.159 187.188 104.296C186.996 104.434 186.832 104.652 186.695 104.951C186.565 105.244 186.471 105.619 186.415 106.076C186.36 106.526 186.359 106.915 186.413 107.244C186.474 107.567 186.581 107.819 186.733 107.999C186.886 108.179 187.075 108.282 187.3 108.31C187.531 108.338 187.743 108.284 187.934 108.146C188.126 108.008 188.287 107.79 188.418 107.49C188.556 107.185 188.653 106.807 188.708 106.357C188.764 105.9 188.761 105.514 188.699 105.197C188.645 104.875 188.542 104.624 188.389 104.444C188.236 104.264 188.044 104.16 187.813 104.131ZM194.488 107.278L195.282 107.376C195.911 107.453 196.464 107.518 196.941 107.569C197.426 107.616 197.875 107.647 198.29 107.664C198.71 107.683 199.137 107.685 199.568 107.67L199.571 108.718C199.126 108.731 198.686 108.731 198.251 108.718C197.823 108.699 197.361 108.665 196.863 108.618C196.366 108.563 195.796 108.497 195.154 108.418L194.36 108.321L194.488 107.278ZM194.917 103.785L199.344 104.328L199.215 105.38L196.098 104.998L195.747 107.856L194.437 107.695L194.917 103.785ZM195.606 105.642L198.861 106.042L198.736 107.064L195.48 106.665L195.606 105.642ZM200.81 103.873L202.13 104.036L201.448 109.594L200.128 109.432L200.81 103.873ZM198.324 109.351C198.973 109.431 199.523 109.569 199.976 109.766C200.429 109.962 200.765 110.205 200.985 110.494C201.211 110.784 201.302 111.114 201.256 111.484C201.188 112.04 200.854 112.436 200.254 112.671C199.654 112.907 198.868 112.964 197.895 112.845C196.923 112.726 196.174 112.479 195.649 112.106C195.13 111.733 194.905 111.269 194.973 110.713C195.041 110.164 195.371 109.771 195.964 109.535C196.565 109.293 197.352 109.232 198.324 109.351ZM198.201 110.354C197.804 110.305 197.467 110.29 197.189 110.31C196.911 110.33 196.696 110.387 196.543 110.483C196.39 110.578 196.304 110.708 196.283 110.874C196.263 111.039 196.316 111.187 196.441 111.316C196.567 111.439 196.762 111.544 197.027 111.63C197.292 111.716 197.623 111.784 198.02 111.833C198.423 111.882 198.761 111.897 199.032 111.876C199.31 111.857 199.524 111.802 199.676 111.714C199.836 111.619 199.926 111.489 199.946 111.324C199.966 111.158 199.911 111.01 199.779 110.88C199.654 110.75 199.459 110.642 199.194 110.556C198.936 110.471 198.605 110.403 198.201 110.354Z" fill="black"/>
</g>
<defs>
<clipPath id="clip0_431_1355">
<rect width="216" height="181" rx="20" fill="white"/>
</clipPath>
</defs>
</svg>
