<svg width="25" height="25" viewBox="0 0 25 25" fill="none" xmlns="http://www.w3.org/2000/svg">
<path fill-rule="evenodd" clip-rule="evenodd" d="M13.2364 16.3615C13.041 16.5568 12.7761 16.6665 12.4999 16.6665C12.2237 16.6665 11.9588 16.5568 11.7635 16.3615L5.87074 10.4688C5.77125 10.3727 5.6919 10.2577 5.6373 10.1307C5.58271 10.0036 5.55398 9.86689 5.55277 9.72857C5.55157 9.59026 5.57793 9.4531 5.6303 9.32508C5.68268 9.19706 5.76003 9.08076 5.85783 8.98295C5.95564 8.88515 6.07194 8.8078 6.19996 8.75543C6.32797 8.70305 6.46514 8.67669 6.60345 8.6779C6.74176 8.6791 6.87845 8.70783 7.00554 8.76243C7.13263 8.81702 7.24757 8.89637 7.34366 8.99586L12.4999 14.1521L17.6562 8.99586C17.8526 8.80612 18.1157 8.70112 18.3889 8.7035C18.662 8.70587 18.9233 8.81542 19.1164 9.00855C19.3095 9.20169 19.4191 9.46295 19.4214 9.73607C19.4238 10.0092 19.3188 10.2723 19.1291 10.4688L13.2364 16.3615Z" fill="black"/>
</svg>
