<svg width="49" height="49" viewBox="0 0 49 49" fill="none" xmlns="http://www.w3.org/2000/svg">
<g filter="url(#filter0_d_352_5106)">
<rect x="4" y="4" width="41" height="41" rx="20.5" fill="white" shape-rendering="crispEdges"/>
<path d="M26.9836 11.6875C25.2804 11.6875 23.6469 12.3375 22.4425 13.4944C21.2382 14.6514 20.5616 16.2206 20.5616 17.8568V21.2916H17.1249C16.9527 21.2916 16.8125 21.425 16.8125 21.5917V26.127C16.8125 26.2924 16.9514 26.4271 17.1249 26.4271H20.5616V35.7311C20.5616 35.8965 20.7004 36.0312 20.874 36.0312H25.5951C25.7672 36.0312 25.9075 35.8979 25.9075 35.7311V26.4271H29.3747C29.5177 26.4271 29.6427 26.3338 29.6774 26.2004L30.8577 21.6651C30.8693 21.6208 30.8702 21.5746 30.8604 21.53C30.8507 21.4853 30.8304 21.4434 30.8012 21.4074C30.772 21.3713 30.7347 21.3422 30.692 21.3221C30.6493 21.3021 30.6025 21.2916 30.5549 21.2916H25.9075V17.8568C25.9075 17.721 25.9353 17.5866 25.9894 17.4612C26.0435 17.3358 26.1227 17.2218 26.2227 17.1258C26.3226 17.0298 26.4412 16.9537 26.5718 16.9017C26.7024 16.8498 26.8423 16.823 26.9836 16.823H30.5938C30.766 16.823 30.9062 16.6896 30.9062 16.5229V11.9876C30.9062 11.8222 30.7674 11.6875 30.5938 11.6875H26.9836Z" fill="#8E8E8E"/>
</g>
<defs>
<filter id="filter0_d_352_5106" x="0" y="0" width="49" height="49" filterUnits="userSpaceOnUse" color-interpolation-filters="sRGB">
<feFlood flood-opacity="0" result="BackgroundImageFix"/>
<feColorMatrix in="SourceAlpha" type="matrix" values="0 0 0 0 0 0 0 0 0 0 0 0 0 0 0 0 0 0 127 0" result="hardAlpha"/>
<feOffset/>
<feGaussianBlur stdDeviation="2"/>
<feComposite in2="hardAlpha" operator="out"/>
<feColorMatrix type="matrix" values="0 0 0 0 0 0 0 0 0 0 0 0 0 0 0 0 0 0 0.5 0"/>
<feBlend mode="normal" in2="BackgroundImageFix" result="effect1_dropShadow_352_5106"/>
<feBlend mode="normal" in="SourceGraphic" in2="effect1_dropShadow_352_5106" result="shape"/>
</filter>
</defs>
</svg>
