<svg width="15" height="15" viewBox="0 0 15 15" fill="none" xmlns="http://www.w3.org/2000/svg">
<path fill-rule="evenodd" clip-rule="evenodd" d="M7.03875 13.8338C7.03875 13.8338 2.5 10.0113 2.5 6.25C2.5 4.92392 3.02678 3.65215 3.96447 2.71447C4.90215 1.77678 6.17392 1.25 7.5 1.25C8.82608 1.25 10.0979 1.77678 11.0355 2.71447C11.9732 3.65215 12.5 4.92392 12.5 6.25C12.5 10.0113 7.96125 13.8338 7.96125 13.8338C7.70875 14.0663 7.29313 14.0638 7.03875 13.8338ZM7.5 8.4375C7.78727 8.4375 8.07172 8.38092 8.33712 8.27099C8.60252 8.16105 8.84367 7.99992 9.0468 7.7968C9.24992 7.59367 9.41105 7.35252 9.52099 7.08712C9.63092 6.82172 9.6875 6.53727 9.6875 6.25C9.6875 5.96273 9.63092 5.67828 9.52099 5.41288C9.41105 5.14748 9.24992 4.90633 9.0468 4.7032C8.84367 4.50008 8.60252 4.33895 8.33712 4.22901C8.07172 4.11908 7.78727 4.0625 7.5 4.0625C6.91984 4.0625 6.36344 4.29297 5.9532 4.7032C5.54297 5.11344 5.3125 5.66984 5.3125 6.25C5.3125 6.83016 5.54297 7.38656 5.9532 7.7968C6.36344 8.20703 6.91984 8.4375 7.5 8.4375Z" fill="#13A549"/>
</svg>
