<svg width="25" height="25" viewBox="0 0 25 25" fill="none" xmlns="http://www.w3.org/2000/svg">
<path d="M12.5003 3.125C12.7658 3.12529 13.0212 3.22696 13.2143 3.40922C13.4073 3.59148 13.5235 3.84058 13.539 4.10562C13.5546 4.37066 13.4684 4.63164 13.298 4.83524C13.1276 5.03884 12.8858 5.16968 12.6222 5.20104L12.5003 5.20833H7.29199C7.03685 5.20837 6.7906 5.30204 6.59994 5.47158C6.40928 5.64112 6.28747 5.87474 6.25762 6.12812L6.25033 6.25V18.75C6.25036 19.0051 6.34403 19.2514 6.51357 19.4421C6.68311 19.6327 6.91673 19.7545 7.17012 19.7844L7.29199 19.7917H11.9795C12.245 19.792 12.5004 19.8936 12.6934 20.0759C12.8865 20.2581 13.0027 20.5072 13.0182 20.7723C13.0338 21.0373 12.9475 21.2983 12.7771 21.5019C12.6067 21.7055 12.365 21.8363 12.1014 21.8677L11.9795 21.875H7.29199C6.4949 21.875 5.72791 21.5705 5.14797 21.0237C4.56803 20.4768 4.21896 19.7291 4.1722 18.9333L4.16699 18.75V6.25C4.16695 5.45291 4.4715 4.68592 5.01833 4.10598C5.56516 3.52603 6.31294 3.17697 7.10866 3.13021L7.29199 3.125H12.5003ZM18.4451 8.81667L21.391 11.7635C21.5862 11.9589 21.6959 12.2238 21.6959 12.5C21.6959 12.7762 21.5862 13.0411 21.391 13.2365L18.4451 16.1833C18.2497 16.3787 17.9846 16.4883 17.7083 16.4882C17.432 16.4881 17.167 16.3783 16.9717 16.1828C16.7764 15.9874 16.6667 15.7223 16.6668 15.446C16.6669 15.1697 16.7767 14.9047 16.9722 14.7094L18.1399 13.5417H12.5003C12.2241 13.5417 11.9591 13.4319 11.7638 13.2366C11.5684 13.0412 11.4587 12.7763 11.4587 12.5C11.4587 12.2237 11.5684 11.9588 11.7638 11.7634C11.9591 11.5681 12.2241 11.4583 12.5003 11.4583H18.1399L16.9722 10.2906C16.7767 10.0953 16.6669 9.83034 16.6668 9.55401C16.6667 9.27769 16.7764 9.01265 16.9717 8.81719C17.167 8.62173 17.432 8.51187 17.7083 8.51177C17.9846 8.51167 18.2497 8.62135 18.4451 8.81667Z" fill="#DC2626"/>
</svg>
