<?xml version="1.0" encoding="UTF-8"?>
<svg version="1.1" xmlns="http://www.w3.org/2000/svg" width="34" height="34">
<path d="M0 0 C3.42945937 1.37178375 4.72964835 2.62150769 6.875 5.625 C8.37549945 10.12649836 8.35777783 13.4566665 7 18 C4.49846745 22.85727026 1.6887154 27.05898213 -3 30 C-7.03508073 29.46906833 -8.80257379 27.25134681 -11.1875 24.1875 C-15.0364151 18.65220457 -16.54222447 14.92481318 -15.6171875 8.15625 C-14.65585931 4.79768571 -12.69615352 3.10431494 -10 1 C-6.801457 -0.5992715 -3.47898371 -0.36127908 0 0 Z M-11 5 C-13.48573282 8.72859923 -13.7684642 11.68123118 -13 16 C-11.0206431 20.27845607 -8.40309823 23.75657794 -5 27 C-0.78771439 25.43989422 1.34546845 22.5154607 4 19 C5.24074055 15.27777836 5.66984934 11.86104171 5 8 C2.74453261 4.97122951 1.048882 3.43031057 -2.4375 2 C-5.96214508 2 -8.03377769 3.15435056 -11 5 Z " fill="#9E9E9E" transform="translate(21,2)"/>
<path d="M0 0 C1.423125 0.4021875 1.423125 0.4021875 2.875 0.8125 C4.25625018 3.57500036 4.06579306 5.75981099 3.875 8.8125 C1.875 10.8125 1.875 10.8125 -1.125 11.0625 C-4.125 10.8125 -4.125 10.8125 -6.125 8.8125 C-6.45802312 5.6820827 -6.60171956 3.63351702 -5 0.875 C-3.125 -0.1875 -3.125 -0.1875 0 0 Z M-3.125 2.8125 C-3.455 4.1325 -3.785 5.4525 -4.125 6.8125 C-2.145 7.8025 -2.145 7.8025 -0.125 8.8125 C0.535 8.1525 1.195 7.4925 1.875 6.8125 C1.5564823 4.70429203 1.5564823 4.70429203 0.875 2.8125 C-0.445 2.8125 -1.765 2.8125 -3.125 2.8125 Z " fill="#9E9E9E" transform="translate(18.125,8.1875)"/>
</svg>
