<svg width="30" height="12" viewBox="0 0 30 12" fill="none" xmlns="http://www.w3.org/2000/svg">
<path d="M3.52866 10.2839C2.96866 10.2839 2.44866 10.1799 1.96866 9.97189C1.48866 9.75589 1.08066 9.46389 0.744656 9.09589C0.408656 8.72789 0.160656 8.30389 0.000656292 7.82389L1.20066 7.31989C1.41666 7.87189 1.73266 8.29589 2.14866 8.59189C2.56466 8.88789 3.04466 9.03589 3.58866 9.03589C3.90866 9.03589 4.18866 8.98789 4.42866 8.89189C4.66866 8.78789 4.85266 8.64389 4.98066 8.45989C5.11666 8.27589 5.18466 8.06389 5.18466 7.82389C5.18466 7.49589 5.09266 7.23589 4.90866 7.04389C4.72466 6.85189 4.45266 6.69989 4.09266 6.58789L2.41266 6.05989C1.74066 5.85189 1.22866 5.53589 0.876656 5.11189C0.524656 4.67989 0.348656 4.17589 0.348656 3.59989C0.348656 3.09589 0.472656 2.65589 0.720656 2.27989C0.968656 1.89589 1.30866 1.59589 1.74066 1.37989C2.18066 1.16389 2.68066 1.05589 3.24066 1.05589C3.77666 1.05589 4.26466 1.15189 4.70466 1.34389C5.14466 1.52789 5.52066 1.78389 5.83266 2.11189C6.15266 2.43989 6.38466 2.81989 6.52866 3.25189L5.35266 3.76789C5.17666 3.29589 4.90066 2.93189 4.52466 2.67589C4.15666 2.41989 3.72866 2.29189 3.24066 2.29189C2.94466 2.29189 2.68466 2.34389 2.46066 2.44789C2.23666 2.54389 2.06066 2.68789 1.93266 2.87989C1.81266 3.06389 1.75266 3.27989 1.75266 3.52789C1.75266 3.81589 1.84466 4.07189 2.02866 4.29589C2.21266 4.51989 2.49266 4.68789 2.86866 4.79989L4.42866 5.29189C5.14066 5.50789 5.67666 5.81989 6.03666 6.22789C6.39666 6.62789 6.57666 7.12789 6.57666 7.72789C6.57666 8.22389 6.44466 8.66389 6.18066 9.04789C5.92466 9.43189 5.56866 9.73589 5.11266 9.95989C4.65666 10.1759 4.12866 10.2839 3.52866 10.2839ZM2.97666 11.3399V-0.000107765H3.93666V11.3399H2.97666ZM11.2982 10.2839C10.7382 10.2839 10.2182 10.1799 9.73819 9.97189C9.25819 9.75589 8.85019 9.46389 8.51419 9.09589C8.17819 8.72789 7.93019 8.30389 7.77019 7.82389L8.97019 7.31989C9.18619 7.87189 9.50219 8.29589 9.91819 8.59189C10.3342 8.88789 10.8142 9.03589 11.3582 9.03589C11.6782 9.03589 11.9582 8.98789 12.1982 8.89189C12.4382 8.78789 12.6222 8.64389 12.7502 8.45989C12.8862 8.27589 12.9542 8.06389 12.9542 7.82389C12.9542 7.49589 12.8622 7.23589 12.6782 7.04389C12.4942 6.85189 12.2222 6.69989 11.8622 6.58789L10.1822 6.05989C9.51019 5.85189 8.99819 5.53589 8.64619 5.11189C8.29419 4.67989 8.11819 4.17589 8.11819 3.59989C8.11819 3.09589 8.24219 2.65589 8.49019 2.27989C8.73819 1.89589 9.07819 1.59589 9.51019 1.37989C9.95019 1.16389 10.4502 1.05589 11.0102 1.05589C11.5462 1.05589 12.0342 1.15189 12.4742 1.34389C12.9142 1.52789 13.2902 1.78389 13.6022 2.11189C13.9222 2.43989 14.1542 2.81989 14.2982 3.25189L13.1222 3.76789C12.9462 3.29589 12.6702 2.93189 12.2942 2.67589C11.9262 2.41989 11.4982 2.29189 11.0102 2.29189C10.7142 2.29189 10.4542 2.34389 10.2302 2.44789C10.0062 2.54389 9.83019 2.68789 9.70219 2.87989C9.58219 3.06389 9.52219 3.27989 9.52219 3.52789C9.52219 3.81589 9.61419 4.07189 9.79819 4.29589C9.98219 4.51989 10.2622 4.68789 10.6382 4.79989L12.1982 5.29189C12.9102 5.50789 13.4462 5.81989 13.8062 6.22789C14.1662 6.62789 14.3462 7.12789 14.3462 7.72789C14.3462 8.22389 14.2142 8.66389 13.9502 9.04789C13.6942 9.43189 13.3382 9.73589 12.8822 9.95989C12.4262 10.1759 11.8982 10.2839 11.2982 10.2839ZM10.7462 11.3399V-0.000107765H11.7062V11.3399H10.7462Z" fill="black"/>
<path d="M19.0677 10.2839C18.5077 10.2839 17.9877 10.1799 17.5077 9.97189C17.0277 9.75589 16.6197 9.46389 16.2837 9.09589C15.9477 8.72789 15.6997 8.30389 15.5397 7.82389L16.7397 7.31989C16.9557 7.87189 17.2717 8.29589 17.6877 8.59189C18.1037 8.88789 18.5837 9.03589 19.1277 9.03589C19.4477 9.03589 19.7277 8.98789 19.9677 8.89189C20.2077 8.78789 20.3917 8.64389 20.5197 8.45989C20.6557 8.27589 20.7237 8.06389 20.7237 7.82389C20.7237 7.49589 20.6317 7.23589 20.4477 7.04389C20.2637 6.85189 19.9917 6.69989 19.6317 6.58789L17.9517 6.05989C17.2797 5.85189 16.7677 5.53589 16.4157 5.11189C16.0637 4.67989 15.8877 4.17589 15.8877 3.59989C15.8877 3.09589 16.0117 2.65589 16.2597 2.27989C16.5077 1.89589 16.8477 1.59589 17.2797 1.37989C17.7197 1.16389 18.2197 1.05589 18.7797 1.05589C19.3157 1.05589 19.8037 1.15189 20.2437 1.34389C20.6837 1.52789 21.0597 1.78389 21.3717 2.11189C21.6917 2.43989 21.9237 2.81989 22.0677 3.25189L20.8917 3.76789C20.7157 3.29589 20.4397 2.93189 20.0637 2.67589C19.6957 2.41989 19.2677 2.29189 18.7797 2.29189C18.4837 2.29189 18.2237 2.34389 17.9997 2.44789C17.7757 2.54389 17.5997 2.68789 17.4717 2.87989C17.3517 3.06389 17.2917 3.27989 17.2917 3.52789C17.2917 3.81589 17.3837 4.07189 17.5677 4.29589C17.7517 4.51989 18.0317 4.68789 18.4077 4.79989L19.9677 5.29189C20.6797 5.50789 21.2157 5.81989 21.5757 6.22789C21.9357 6.62789 22.1157 7.12789 22.1157 7.72789C22.1157 8.22389 21.9837 8.66389 21.7197 9.04789C21.4637 9.43189 21.1077 9.73589 20.6517 9.95989C20.1957 10.1759 19.6677 10.2839 19.0677 10.2839ZM18.5157 11.3399V-0.000107765H19.4757V11.3399H18.5157ZM26.8373 10.2839C26.2773 10.2839 25.7573 10.1799 25.2773 9.97189C24.7973 9.75589 24.3893 9.46389 24.0533 9.09589C23.7173 8.72789 23.4693 8.30389 23.3093 7.82389L24.5093 7.31989C24.7253 7.87189 25.0413 8.29589 25.4573 8.59189C25.8733 8.88789 26.3533 9.03589 26.8973 9.03589C27.2173 9.03589 27.4973 8.98789 27.7373 8.89189C27.9773 8.78789 28.1613 8.64389 28.2893 8.45989C28.4253 8.27589 28.4933 8.06389 28.4933 7.82389C28.4933 7.49589 28.4013 7.23589 28.2173 7.04389C28.0333 6.85189 27.7613 6.69989 27.4013 6.58789L25.7213 6.05989C25.0493 5.85189 24.5373 5.53589 24.1853 5.11189C23.8333 4.67989 23.6573 4.17589 23.6573 3.59989C23.6573 3.09589 23.7813 2.65589 24.0293 2.27989C24.2773 1.89589 24.6173 1.59589 25.0493 1.37989C25.4893 1.16389 25.9893 1.05589 26.5493 1.05589C27.0853 1.05589 27.5733 1.15189 28.0133 1.34389C28.4533 1.52789 28.8293 1.78389 29.1413 2.11189C29.4613 2.43989 29.6933 2.81989 29.8372 3.25189L28.6613 3.76789C28.4853 3.29589 28.2093 2.93189 27.8333 2.67589C27.4653 2.41989 27.0373 2.29189 26.5493 2.29189C26.2533 2.29189 25.9933 2.34389 25.7693 2.44789C25.5453 2.54389 25.3693 2.68789 25.2413 2.87989C25.1213 3.06389 25.0613 3.27989 25.0613 3.52789C25.0613 3.81589 25.1533 4.07189 25.3373 4.29589C25.5213 4.51989 25.8013 4.68789 26.1773 4.79989L27.7373 5.29189C28.4493 5.50789 28.9853 5.81989 29.3453 6.22789C29.7053 6.62789 29.8853 7.12789 29.8853 7.72789C29.8853 8.22389 29.7533 8.66389 29.4893 9.04789C29.2333 9.43189 28.8773 9.73589 28.4213 9.95989C27.9653 10.1759 27.4373 10.2839 26.8373 10.2839ZM26.2853 11.3399V-0.000107765H27.2453V11.3399H26.2853Z" fill="#909090"/>
</svg>
