<svg width="21" height="21" viewBox="0 0 21 21" fill="none" xmlns="http://www.w3.org/2000/svg">
<path fill-rule="evenodd" clip-rule="evenodd" d="M12.6956 13.7282C11.3831 14.777 9.71883 15.2833 8.04467 15.1433C6.37051 15.0032 4.81352 14.2274 3.69347 12.9752C2.57343 11.7229 1.97535 10.0893 2.02208 8.40988C2.0688 6.73042 2.75679 5.13261 3.94473 3.9446C5.13268 2.75659 6.7304 2.06856 8.40975 2.02183C10.0891 1.9751 11.7226 2.57321 12.9748 3.69332C14.2269 4.81344 15.0027 6.37052 15.1427 8.04477C15.2828 9.71903 14.7765 11.3834 13.7278 12.6959L18.7486 17.7161C18.8204 17.783 18.8779 17.8636 18.9178 17.9532C18.9578 18.0428 18.9792 18.1395 18.981 18.2376C18.9827 18.3356 18.9646 18.433 18.9279 18.524C18.8912 18.6149 18.8365 18.6975 18.7672 18.7669C18.6978 18.8363 18.6152 18.8909 18.5243 18.9277C18.4333 18.9644 18.3359 18.9824 18.2378 18.9807C18.1398 18.979 18.0431 18.9575 17.9535 18.9176C17.8639 18.8777 17.7833 18.8201 17.7164 18.7484L12.6956 13.7282ZM4.97736 12.2071C4.26264 11.4922 3.77586 10.5816 3.57853 9.59014C3.3812 8.59872 3.48219 7.57105 3.86872 6.637C4.25525 5.70296 4.90998 4.90446 5.75017 4.34244C6.59035 3.78042 7.57828 3.48008 8.5891 3.4794C9.59991 3.47872 10.5882 3.77772 11.4292 4.33862C12.2701 4.89951 12.9259 5.69712 13.3137 6.63064C13.7015 7.56417 13.8039 8.59171 13.6079 9.58339C13.4119 10.5751 12.9263 11.4864 12.2126 12.2022L12.2077 12.2071L12.2028 12.211C11.2438 13.1679 9.94407 13.705 8.58929 13.7042C7.23451 13.7035 5.93541 13.165 4.97736 12.2071Z" fill="#FECB08"/>
</svg>
