<?xml version="1.0" encoding="UTF-8"?>
<svg version="1.1" xmlns="http://www.w3.org/2000/svg" width="70" height="70">
<path d="M0 0 C9.88869366 5.81586346 16.18371269 13.07946401 19.23828125 24.31640625 C20.38735482 37.08982869 18.61354015 47.16824221 10.296875 57.2734375 C3.21022892 64.30629499 -5.61611128 67.71862775 -15.51171875 67.69140625 C-26.47606606 67.63253223 -34.98655606 64.15103481 -42.76171875 56.31640625 C-50.24991451 46.1985229 -51.71146652 36.5669503 -50.76171875 24.31640625 C-48.94192176 16.08918036 -44.07411436 8.50798906 -37.296875 3.4921875 C-26.19180869 -3.40464315 -12.20554198 -5.88737907 0 0 Z " fill="#FDCB08" transform="translate(50.76171875,2.68359375)"/>
<path d="M0 0 C4.32625381 2.20394062 7.64014223 4.73410327 10 9 C10.48948767 13.57084966 10.6141748 18.12850509 9.171875 22.5234375 C8.70075482 25.229761 8.70075482 25.229761 11.08984375 27.5703125 C12.02957031 28.41335937 12.96929687 29.25640625 13.9375 30.125 C15.67441884 31.69706685 17.37373719 33.31371695 19 35 C19 35.99 19 36.98 19 38 C13.90238878 37.37580271 11.54195782 33.48221318 8.31640625 29.8359375 C6.17003766 27.70567218 6.17003766 27.70567218 3.55078125 28.19921875 C2.70902344 28.46347656 1.86726563 28.72773437 1 29 C-3.58040588 29.53370511 -8.01948266 30.04830225 -12.19921875 27.8359375 C-15.5886274 25.06472288 -18.06391798 22.36838277 -19 18 C-19.45122245 13.2621643 -19.50652977 11.01305955 -17.375 6.75 C-12.3003986 0.87414575 -7.66017779 -1.36150377 0 0 Z " fill="#FECC0E" transform="translate(35,16)"/>
<path d="M0 0 C4.32625381 2.20394062 7.64014223 4.73410327 10 9 C10.48948767 13.57084966 10.6141748 18.12850509 9.171875 22.5234375 C8.70075482 25.229761 8.70075482 25.229761 11.08984375 27.5703125 C12.02957031 28.41335937 12.96929687 29.25640625 13.9375 30.125 C15.67441884 31.69706685 17.37373719 33.31371695 19 35 C19 35.99 19 36.98 19 38 C13.90238878 37.37580271 11.54195782 33.48221318 8.31640625 29.8359375 C6.17003766 27.70567218 6.17003766 27.70567218 3.55078125 28.19921875 C2.70902344 28.46347656 1.86726563 28.72773437 1 29 C-3.58040588 29.53370511 -8.01948266 30.04830225 -12.19921875 27.8359375 C-15.5886274 25.06472288 -18.06391798 22.36838277 -19 18 C-19.45122245 13.2621643 -19.50652977 11.01305955 -17.375 6.75 C-12.3003986 0.87414575 -7.66017779 -1.36150377 0 0 Z M-14.3125 8.8125 C-16.20144076 12.38049922 -16.66067786 14.03593282 -16 18 C-14.36564595 21.03522895 -12.944447 23.28352297 -10.1875 25.375 C-5.90437443 26.59875016 -2.31770435 26.59895652 1.75 24.75 C4.15346513 22.88063823 5.6052475 21.71609698 7 19 C7.40510805 14.74636551 7.45309967 12.13274917 5.875 8.1875 C2.9591602 4.7856869 -0.14493971 3.27147224 -4.5625 2.625 C-9.12004746 3.32616115 -11.41993658 5.29451746 -14.3125 8.8125 Z " fill="#FEFBED" transform="translate(35,16)"/>
</svg>
