<svg width="25" height="25" viewBox="0 0 25 25" fill="none" xmlns="http://www.w3.org/2000/svg">
<path d="M20.7161 13.0532L22.1286 14.311C22.3894 14.5287 22.5637 14.8325 22.6199 15.1676C22.6761 15.5027 22.6104 15.8467 22.4348 16.1376L20.7317 19.047C20.5996 19.2697 20.4109 19.4535 20.1848 19.5798C19.9561 19.7063 19.6993 19.7735 19.438 19.7751C19.2758 19.7761 19.1145 19.7518 18.9598 19.7032L17.152 19.1063C16.8354 19.3095 16.5062 19.4912 16.1645 19.6516L15.7848 21.4845C15.7146 21.8216 15.5269 22.1228 15.2552 22.3345C14.98 22.5499 14.6389 22.6636 14.2895 22.6563H10.763C10.4136 22.6636 10.0725 22.5499 9.79734 22.3345C9.52621 22.1226 9.33907 21.8214 9.26921 21.4845L8.88796 19.6516C8.55078 19.4891 8.22363 19.3065 7.90828 19.1048L6.09421 19.7032C5.93953 19.7518 5.77823 19.7761 5.61609 19.7751C5.35524 19.7732 5.09902 19.7061 4.87078 19.5798C4.6449 19.4539 4.45625 19.2707 4.3239 19.0485L2.55984 16.1376C2.37645 15.8441 2.30637 15.4938 2.36275 15.1524C2.41913 14.811 2.59809 14.5018 2.86609 14.2829L4.27703 12.5001V11.947L2.86453 10.6891C2.60369 10.4715 2.4294 10.1676 2.37323 9.83256C2.31705 9.49751 2.3827 9.15342 2.55828 8.86258L4.32234 5.95321C4.45447 5.7305 4.64314 5.54668 4.86921 5.42039C5.09745 5.2941 5.35368 5.22695 5.61453 5.22508C5.7752 5.21494 5.93648 5.2297 6.09265 5.26883L7.87078 5.89383C8.18849 5.69071 8.51765 5.50893 8.85828 5.34852L9.23953 3.51571C9.30938 3.17878 9.49652 2.87757 9.76765 2.66571C10.0428 2.45031 10.3839 2.3366 10.7333 2.34383H14.2302C14.5795 2.3366 14.9206 2.45031 15.1958 2.66571C15.4692 2.87977 15.6567 3.18133 15.7239 3.51571L16.1052 5.34852C16.4437 5.50998 16.7703 5.69227 17.0848 5.89539L18.9005 5.29852C19.102 5.23297 19.3149 5.20995 19.5258 5.23093C19.7366 5.25191 19.9408 5.31642 20.1255 5.42039C20.352 5.54852 20.5395 5.73289 20.6723 5.95164L22.4348 8.86258C22.6207 9.15355 22.6943 9.50221 22.642 9.84349C22.5897 10.1848 22.415 10.4954 22.1505 10.7173L20.7161 11.9391V13.0532Z" stroke="black" stroke-width="2"/>
<path d="M16.4062 12.5C16.4062 13.536 15.9947 14.5296 15.2621 15.2621C14.5296 15.9947 13.536 16.4062 12.5 16.4062C11.464 16.4062 10.4704 15.9947 9.73786 15.2621C9.0053 14.5296 8.59375 13.536 8.59375 12.5C8.59375 11.464 9.0053 10.4704 9.73786 9.73786C10.4704 9.0053 11.464 8.59375 12.5 8.59375C13.536 8.59375 14.5296 9.0053 15.2621 9.73786C15.9947 10.4704 16.4062 11.464 16.4062 12.5Z" stroke="black" stroke-width="2"/>
</svg>
