<svg width="19" height="19" viewBox="0 0 19 19" fill="none" xmlns="http://www.w3.org/2000/svg">
<path d="M9.50002 13.6762L6.2146 15.6553C6.06946 15.7477 5.91772 15.7873 5.75939 15.7741C5.60106 15.7609 5.46252 15.7081 5.34377 15.6157C5.22502 15.5234 5.13266 15.4081 5.06668 15.2698C5.00071 15.1315 4.98752 14.9763 5.0271 14.8043L5.89793 11.0637L2.98856 8.55011C2.85661 8.43137 2.77428 8.29599 2.74156 8.14399C2.70884 7.99199 2.7186 7.84368 2.77085 7.69907C2.8231 7.55446 2.90227 7.43571 3.00835 7.34282C3.11443 7.24993 3.25957 7.19056 3.44377 7.1647L7.28335 6.82824L8.76772 3.30532C8.8337 3.14699 8.93609 3.02824 9.07489 2.94907C9.2137 2.86991 9.35541 2.83032 9.50002 2.83032C9.64463 2.83032 9.78634 2.86991 9.92514 2.94907C10.0639 3.02824 10.1663 3.14699 10.2323 3.30532L11.7167 6.82824L15.5563 7.1647C15.741 7.19109 15.8861 7.25046 15.9917 7.34282C16.0972 7.43518 16.1764 7.55393 16.2292 7.69907C16.282 7.84421 16.292 7.99278 16.2593 8.14478C16.2265 8.29678 16.1439 8.43189 16.0115 8.55011L13.1021 11.0637L13.9729 14.8043C14.0125 14.9758 13.9993 15.131 13.9334 15.2698C13.8674 15.4086 13.775 15.5239 13.6563 15.6157C13.5375 15.7076 13.399 15.7604 13.2406 15.7741C13.0823 15.7878 12.9306 15.7482 12.7854 15.6553L9.50002 13.6762Z" fill="#FECB08"/>
</svg>
