<svg width="1440" height="444" viewBox="0 0 1440 444" fill="none" xmlns="http://www.w3.org/2000/svg">
<g clip-path="url(#clip0_352_4420)">
<rect width="1440" height="444" fill="#B6E3C7"/>
<path d="M228.947 145.14H438.64L413.92 137.505C413.92 137.505 409.69 124.186 395.959 121.32C382.227 118.455 373.562 133.231 373.562 133.231C373.562 133.231 375.733 105.56 345.659 100.903C315.586 96.2467 307.345 134.574 307.345 134.574C307.345 134.574 308.168 123.112 292.895 120.962C277.622 118.812 267.121 137.505 267.121 137.505L228.947 145.14Z" fill="white"/>
<path d="M1035 176H1331L1296.11 165.223C1296.11 165.223 1290.13 146.42 1270.75 142.375C1251.37 138.331 1239.14 159.188 1239.14 159.188C1239.14 159.188 1242.2 120.127 1199.75 113.554C1157.3 106.98 1145.67 161.084 1145.67 161.084C1145.67 161.084 1146.83 144.904 1125.27 141.87C1103.71 138.835 1088.89 165.223 1088.89 165.223L1035 176Z" fill="white"/>
<path d="M625.195 116.666H838.999L803.835 108.184C803.835 108.184 796.589 94.25 786.958 92.4324C777.328 90.6149 772.48 101.217 772.48 101.217C772.48 101.217 755.022 74.5615 732.097 73.0465C709.172 71.5314 687.058 107.578 687.058 107.578C687.058 107.578 681.303 101.217 667.369 99.7028C653.434 98.1877 651.215 111.516 651.215 111.516L625.195 116.666Z" fill="white"/>
<path d="M109 106.973H197.249L179.983 104.716C179.983 104.716 177.055 96.4424 167.564 93.6212C158.072 90.7999 153.125 100.956 153.125 100.956C153.125 100.956 144.541 87.0389 133.031 87.6025C121.52 88.166 117.683 102.647 117.683 102.647L109 106.973Z" fill="white"/>
<path d="M649.887 263.715H690.637L696.808 255.6L664.925 195.113H408.824L376.941 255.6L383.112 263.715H423.863L427.054 390.605L405.911 425.574L406.294 438.226L397.314 447.729L398.514 484.828H675.235L676.437 447.729L667.456 438.226L667.838 425.574L646.696 390.605L649.887 263.715ZM434.122 263.715H639.629L637.116 373.633H436.634L434.122 263.715Z" fill="#5DC08D"/>
<path d="M975.272 263.715H1016.02L1022.19 255.6L990.309 195.113H801.053L769.17 255.6L775.34 263.715H816.09L819.281 390.605L798.138 425.574L798.521 438.226L789.541 447.729L790.743 484.828H1000.62L1001.82 447.729L992.841 438.226L993.223 425.574L972.081 390.605L975.272 263.715ZM826.35 263.715H965.013L962.5 373.633H828.862L826.35 263.715Z" fill="#5DC08D"/>
<path d="M1022.78 455.91C1022.99 457.381 1022.95 458.792 1022.71 460.085H922.594C922.606 459.136 922.662 458.174 922.798 457.19C924.055 448.1 930.353 441.037 937.056 440.678C937.032 440.34 937.032 439.991 937.069 439.631C937.345 436.986 939.257 434.872 941.346 434.872C941.367 434.872 941.385 434.879 941.406 434.88C941.416 434.753 941.414 434.629 941.426 434.501C942.424 423.732 950.053 415.49 958.523 415.49C959.39 415.49 960.228 415.594 961.049 415.755C961.502 409.733 965.837 405.09 970.959 405.09C974.507 405.09 977.631 407.304 979.354 410.643C980.015 409.544 981.106 408.828 982.364 408.828C982.785 408.828 983.186 408.925 983.568 409.072C984.487 405.506 987.298 402.982 990.73 402.982C995.023 402.982 998.833 406.947 999.252 411.98C999.461 414.48 998.791 416.78 997.529 418.501C998.583 419.169 999.47 420.206 1000.06 421.466C1001.15 421.075 1002.32 420.855 1003.55 420.855C1010.5 420.855 1017.05 427.707 1018.23 436.568C1018.72 440.253 1018.2 443.718 1016.91 446.586C1019.82 448.152 1022.2 451.694 1022.78 455.91Z" fill="#13A248"/>
<path d="M610.053 401.015L610.674 390.214H579.37L579.877 376.991H581.797L582.367 362.532H568.015C568.263 354.441 571.638 244.846 571.824 238.816C579.323 238.816 594.727 238.816 602.276 238.816L601.308 259.011C600.866 266.03 612.423 266.038 612.697 259.011C613.201 249.665 614.257 230.396 614.776 220.797L520.692 158L370.023 216.064L371.88 238.816C396.257 238.816 451.026 238.816 475.843 238.816L476.032 246.962L478.711 362.532H449.448L450.039 376.991H451.959L456.239 484.826H642.18L649.024 401.013H610.053V401.015ZM489.059 252.882L488.836 238.816H558.831L558.609 248.289L555.927 362.532H490.801L489.059 252.882Z" fill="#13A248"/>
<path d="M640.336 454.278L628.552 448.414L626.073 443.068L629.509 441.22L626.809 434.063L626.232 434.323C621.704 420.435 612.952 394.642 609.191 383.587C609.995 383.448 610.8 383.3 611.61 383.132C611.61 383.132 611.282 376.436 610.775 368.104L619.781 372.497C621.267 374.453 630.272 380.297 633.262 377.177C633.742 377.415 634.286 377.272 634.173 376.706C634.971 376.663 636.157 375.324 635.556 374.48C635.744 374.345 635.754 374.063 635.625 373.887C636.737 371.375 631.391 369.188 629.743 368.312C629.794 368.256 629.794 368.17 629.792 368.1C632.335 367.877 631.898 366.325 631.898 366.325C630.961 365.431 625.449 362.62 623.044 364.717L610.146 358.425C609.114 343.96 608.975 330.77 600.367 324.862L599.165 321.664L599.059 321.645C599.059 321.253 599.059 319.719 599.059 319.298C613.662 320.474 614.719 304.838 614.127 304.839C613.418 303.135 612.579 295.944 612.713 290.451C618.045 283.344 609.429 276.598 601.643 277.149C584.098 271.031 578.811 286.222 576.692 306.635C575.917 315.253 582.122 312.671 580.542 319.686C579.045 327.353 584.428 329.597 584.773 329.935C582.788 337.592 575.784 344.199 571.874 351.469L564.269 372.794C562.728 373.665 556.849 384.951 560.632 387.678C560.453 388.177 560.68 388.748 561.202 388.514C561.335 389.311 562.783 390.35 563.557 389.655C563.722 389.808 563.996 389.8 564.155 389.642C566.763 390.449 568.255 384.839 568.917 383.072C568.985 383.109 569.064 383.105 569.129 383.071C569.657 385.613 571.136 384.982 571.136 384.982C571.716 384.115 574.005 378.472 571.883 376.365L579.247 355.722C578.073 369.028 577.652 383.136 577.652 383.136C577.652 383.136 578.35 383.29 579.594 383.5C573.685 394.416 559.991 419.98 553.659 433.984L553.119 433.679L548.977 441.351L552.394 443.212L550.883 445.969C549.411 446.379 547.606 448.46 547.52 449.334C546.974 451.779 545.462 456.274 548.629 456.771C549.135 456.883 567.727 461.159 567.861 461.178C569.589 461.499 570.619 459.862 570.732 458.276C572.103 454.276 562.088 450.288 560.115 448.301L560.489 447.619L562.535 448.732L567.517 441.791L566.822 441.4C572.89 432.609 584.216 416.079 593.39 401.997C600.105 415.53 608.219 431.323 612.878 440.337L612.112 440.681L616.202 448.382L617.96 447.436L619.723 451.238C619.051 452.019 617.87 452.968 617.973 454.135C618.099 456.335 617.124 461.217 620.62 461.152H640.197C643.693 460.945 642.985 455.342 640.336 454.278Z" fill="#5DC08D"/>
<path d="M343.223 201.023L324.807 172.233C323.967 170.432 322.216 169.29 319.955 168.578H84.7602C82.9995 169.309 81.4701 170.511 80.4167 172.233L62 201.023C62.9452 217.52 59.2033 241.779 83.9674 241.961L88.3657 358.722H79.4635L80.1894 376.61H89.2146L93.284 484.828H311.935L316.006 376.61H325.031L325.758 358.722H316.856L321.256 241.961C326.908 242.076 332.741 239.943 336.881 235.92C344.912 229.904 342.017 209.422 343.223 201.023ZM104.153 358.72H100.055L95.9765 238.108C96.8628 237.444 97.7104 236.716 98.4684 235.919C99.0686 235.286 99.6114 234.614 100.102 233.908L104.153 358.72ZM292.231 358.72H112.991L109.397 237.109C117.183 243.844 131.12 243.56 138.204 235.918C141.133 232.874 142.876 228.913 142.794 224.563C142.669 240.689 167.199 247.841 177.938 235.918C180.905 232.874 182.699 228.913 182.671 224.563C182.343 240.689 206.783 247.841 217.674 235.918C220.679 232.874 222.523 228.913 222.55 224.563C222.02 240.689 246.369 247.839 257.408 235.918C260.503 232.829 262.406 228.771 262.431 224.355C261.706 239.732 284.154 247.289 295.83 236.901L292.231 358.72ZM305.167 358.72H301.069L305.123 233.908C306.228 235.503 307.617 236.924 309.247 238.108L305.167 358.72Z" fill="#13A248"/>
<path d="M240.438 361.031C240.429 360.995 240.45 360.966 240.45 360.931C237.499 360.931 237.873 359.145 237.873 359.145C237.873 359.145 241.397 356.507 243.456 356.092C244.869 355.807 246.977 356.526 248.161 357.007C252.762 352.438 260.875 345.498 265.579 341.716C265.82 341.53 266.209 341.173 266.622 340.781C267.12 334.451 267.685 328.608 268.295 324.665C270.106 312.927 276.737 308.89 278.682 307.943L279.238 305.087V304.527V302.515C277.833 302.556 276.428 302.433 275.052 302.107C263.702 299.411 264.403 287.748 264.426 287.682C265.054 285.804 265.968 280.097 265.788 274.003C265.769 273.362 265.8 272.75 265.856 272.152C265.843 272.136 265.835 272.128 265.821 272.113C264.079 272.031 262.493 271.623 261.63 270.579C259.347 267.813 261.936 262.539 270.506 260.479C269.36 258.744 269.216 256.664 273.155 255.238C281.104 252.361 300.849 256.143 300.424 267.329C300.401 267.914 300.339 268.454 300.27 268.981C301.244 268.251 302.97 267.474 303.271 270.846C303.541 273.875 301.699 279.918 299.783 284.268C299.466 286.913 299.004 289.771 298.331 292.043C296.608 297.862 292.269 300.4 290.654 299.586C290.545 299.531 290.428 299.435 290.314 299.357C289.509 299.791 288.695 300.174 287.892 300.504V303.739L288.353 307.455C289.952 307.929 295.342 310.268 298.195 320.454C302.476 325.455 305.681 332.174 305.866 332.566C305.964 332.774 305.899 333.02 305.714 333.153C305.542 333.273 304.036 334.337 301.973 335.741C304.73 340.944 307.738 346.244 308.132 352.16L308.094 351.737C308.754 358.182 309.772 368.324 309.716 375.073C310.294 375.987 311.308 378.31 311.874 383.827C312.034 385.396 311.288 386.778 310.147 387.888C309.366 388.648 308.409 389.2 307.405 389.615L304.942 390.634L304.085 390.76C303.478 390.811 302.96 390.768 302.609 390.596C300.865 389.748 301.763 385.546 302.08 384.272C302.045 384.263 302.03 384.229 302 384.211C301.464 385.145 300.945 385.586 300.502 385.76L301.227 402.137L324.208 431.929L323.94 432.288L330.482 439.221C331.246 440.032 331.471 441.211 331.052 442.249C329.911 445.074 327.404 450.585 324.503 452.677C320.529 455.543 306.268 454.473 306.268 454.473C306.268 454.473 305.608 446.143 310.491 444.881C315.375 443.621 317.546 443.993 317.546 443.993L318.145 442.876L317.339 441.145L317.233 441.287C290.047 423.985 282.88 406.37 282.88 406.37L281.973 404.245L277.173 413.008L285.356 447.091H284.955C285.567 448.353 286.218 449.885 286.44 451.096C286.693 452.477 286.856 454.934 286.951 456.845C287.024 458.32 285.856 459.554 284.393 459.554H257.91C257.91 459.554 257.042 452.625 262.121 451.239C267.2 449.854 271.658 448.707 271.658 448.707L272.416 447.09H272.373C257.384 418.079 259.251 407.167 259.251 407.167L267.121 375.575L264.565 375.489C264.565 375.489 264.995 365.56 265.705 354.073C261.221 357.291 256.137 360.807 252.159 363.091C251.665 364.054 250.181 366.105 245.738 369.364C243.934 370.687 241.531 370.206 239.48 369.098L238.469 368.49C237.674 367.95 236.969 367.335 236.426 366.726L235.889 366.041C235.54 365.537 235.317 365.06 235.287 364.67C235.135 362.716 239.187 361.392 240.438 361.031Z" fill="#5DC08D"/>
<path d="M958.683 199.342L940.614 172.024C939.785 170.324 938.11 169.249 935.964 168.577H714.263C712.588 169.266 711.122 170.4 710.092 172.024L692.023 199.342C692.519 215.124 688.354 238.507 712.007 238.684L713.814 354.216H705.123L705.429 372.367H714.27L716.027 484.829H934.678L936.435 372.367H945.275L945.581 354.216H936.89L938.698 238.684C944.1 238.795 949.624 236.73 953.484 232.841C960.998 227.036 957.742 207.365 958.683 199.342ZM729.228 354.215H725.227L723.552 234.956C724.41 234.314 725.232 233.612 725.97 232.841C726.555 232.23 727.084 231.581 727.565 230.9L729.228 354.215ZM912.85 354.215H737.856L736.381 233.991C743.711 240.508 757.034 240.233 763.889 232.84C766.717 229.9 768.421 226.082 768.388 221.894C768.1 237.455 791.485 244.385 801.808 232.84C804.652 229.9 806.375 226.082 806.364 221.894C805.995 237.455 829.344 244.385 839.727 232.84C842.585 229.9 844.33 226.082 844.341 221.894C843.89 237.455 867.202 244.384 877.646 232.84C880.567 229.857 882.341 225.945 882.318 221.693C881.788 236.528 903.331 243.848 914.327 233.791L912.85 354.215ZM925.478 354.215H921.476L923.139 230.898C924.224 232.438 925.575 233.812 927.153 234.956L925.478 354.215Z" fill="#13A248"/>
<path d="M1097.16 362.929H1086.48L1081 242.055H1092.18L1097.16 362.929Z" fill="#13A248"/>
<path d="M1092.96 261.074L1092.18 242.055H1081L1081.7 257.537L1092.96 261.074Z" fill="#13A248"/>
<path d="M1096.44 345.324L1097.16 362.93H1086.48L1085.83 348.635L1096.44 345.324Z" fill="#13A248"/>
<path d="M1311.22 362.929H1321.91L1327.39 242.055H1316.21L1311.22 362.929Z" fill="#13A248"/>
<path d="M1315.42 261.074L1316.21 242.055H1327.39L1326.69 257.537L1315.42 261.074Z" fill="#13A248"/>
<path d="M1311.95 345.324L1311.22 362.93H1321.91L1322.56 348.635L1311.95 345.324Z" fill="#13A248"/>
<path d="M1202.68 319.619H1194.21V331.138H1202.68V319.619Z" fill="#5DC08D"/>
<path d="M1194.21 324.333C1196.43 324.66 1200.17 324.91 1201.84 323.266L1194.21 321.726V324.333Z" fill="#5DC08D"/>
<path d="M1215.45 332.711C1215.45 332.711 1212.84 330.304 1202.67 329.242C1202.67 329.242 1200.88 330.422 1198.44 330.327C1196 330.422 1194.2 329.242 1194.2 329.242C1184.03 330.304 1181.43 332.711 1181.43 332.711L1180.16 354.404H1198.44H1216.72L1215.45 332.711Z" fill="#5DC08D"/>
<path d="M1207.7 329.97C1206.27 329.696 1204.61 329.444 1202.67 329.242C1202.67 329.242 1200.88 330.422 1198.44 330.327C1196 330.422 1194.2 329.242 1194.2 329.242C1192.84 329.385 1191.62 329.553 1190.51 329.735C1193.12 331.376 1199.27 334.044 1207.7 329.97Z" fill="#5DC08D"/>
<path d="M1167.79 353.176L1178.65 354.97C1178.65 354.97 1179.49 350.169 1180.5 348.609L1181.43 332.711C1181.43 332.711 1173.08 339.108 1167.79 353.176Z" fill="#5DC08D"/>
<path d="M1180.5 348.61L1181.08 339.721" stroke="#5DC08D" stroke-width="0.4658" stroke-miterlimit="10" stroke-linecap="round" stroke-linejoin="round"/>
<path d="M1229.09 353.176L1218.23 354.97C1218.23 354.97 1217.39 350.169 1216.38 348.609L1215.45 332.711C1215.45 332.711 1223.8 339.108 1229.09 353.176Z" fill="#5DC08D"/>
<path d="M1216.38 348.61L1215.8 339.721" stroke="#5DC08D" stroke-width="0.4658" stroke-miterlimit="10" stroke-linecap="round" stroke-linejoin="round"/>
<path d="M1199.6 292.213C1192.72 292.983 1186.52 297.487 1186 303.336L1186.39 312.322C1186.78 317.32 1190.26 320.359 1194.05 322.196C1197.53 323.888 1201.66 323.888 1205.15 322.196C1208.93 320.359 1212.42 317.32 1212.81 312.322L1213.19 303.336C1212.68 297.488 1206.48 292.983 1199.6 292.213Z" fill="#5DC08D"/>
<path d="M1194.8 314.907C1194.8 315.686 1193.59 316.317 1192.11 316.317C1190.63 316.317 1189.43 315.686 1189.43 314.907C1189.43 314.129 1190.63 313.498 1192.11 313.498C1193.59 313.498 1194.8 314.129 1194.8 314.907Z" fill="#5DC08D"/>
<path d="M1207.21 315.233C1207.21 316.011 1206.01 316.642 1204.53 316.642C1203.05 316.642 1201.85 316.011 1201.85 315.233C1201.85 314.454 1203.05 313.823 1204.53 313.823C1206.01 313.823 1207.21 314.454 1207.21 315.233Z" fill="#5DC08D"/>
<path d="M1218.11 310.385C1218.06 312.978 1216.76 315.21 1214.82 315.233C1212.87 315.255 1210.51 313.775 1210.51 311.181C1210.51 307.426 1212.87 305.041 1215.15 305.275C1217.09 305.475 1218.16 307.793 1218.11 310.385Z" fill="#5DC08D"/>
<path d="M1216.69 310.715C1216.6 312.299 1215.86 313.521 1215.03 313.444C1214.21 313.367 1213.61 312.022 1213.7 310.437C1213.79 308.853 1214.53 307.63 1215.36 307.707C1216.18 307.784 1216.78 309.13 1216.69 310.715Z" fill="#5DC08D"/>
<path d="M1215.23 307.719C1214.46 307.768 1213.79 308.933 1213.7 310.437C1213.61 312.004 1214.19 313.335 1215.01 313.436" stroke="#5DC08D" stroke-width="0.4658" stroke-miterlimit="10" stroke-linecap="round" stroke-linejoin="round"/>
<path d="M1213.7 310.482C1213.7 310.482 1214.21 309.491 1215.25 310.604" stroke="#5DC08D" stroke-width="0.4658" stroke-miterlimit="10" stroke-linecap="round" stroke-linejoin="round"/>
<path d="M1181.08 310.385C1181.13 312.978 1182.43 315.21 1184.38 315.233C1186.32 315.255 1188.68 313.775 1188.68 311.182C1188.68 307.426 1186.32 305.041 1184.04 305.276C1182.1 305.476 1181.03 307.793 1181.08 310.385Z" fill="#5DC08D"/>
<path d="M1182.5 310.715C1182.59 312.299 1183.33 313.521 1184.16 313.444C1184.98 313.367 1185.58 312.022 1185.49 310.437C1185.4 308.853 1184.66 307.63 1183.83 307.707C1183.01 307.784 1182.41 309.13 1182.5 310.715Z" fill="#5DC08D"/>
<path d="M1183.96 307.719C1184.73 307.768 1185.4 308.933 1185.49 310.437C1185.58 312.004 1184.99 313.335 1184.18 313.436" stroke="#5DC08D" stroke-width="0.4658" stroke-miterlimit="10" stroke-linecap="round" stroke-linejoin="round"/>
<path d="M1185.49 310.482C1185.49 310.482 1184.98 309.491 1183.94 310.604" stroke="#5DC08D" stroke-width="0.4658" stroke-miterlimit="10" stroke-linecap="round" stroke-linejoin="round"/>
<path d="M1190.07 308.348C1190.07 308.348 1193.37 305.56 1196.33 308.747" stroke="#5DC08D" stroke-width="0.5732" stroke-miterlimit="10" stroke-linecap="round" stroke-linejoin="round"/>
<path d="M1207.65 308.788C1207.65 308.788 1204.36 306 1201.4 309.187" stroke="#5DC08D" stroke-width="0.5732" stroke-miterlimit="10" stroke-linecap="round" stroke-linejoin="round"/>
<path d="M1195.71 303.839C1195.71 303.839 1192.21 302.872 1189.59 305.589" stroke="#5DC08D" stroke-width="0.5732" stroke-miterlimit="10" stroke-linecap="round" stroke-linejoin="round"/>
<path d="M1201.55 304.05C1201.55 304.05 1204.98 302.845 1207.78 305.38" stroke="#5DC08D" stroke-width="0.5732" stroke-miterlimit="10" stroke-linecap="round" stroke-linejoin="round"/>
<path d="M1198.85 318.363H1195.7C1195.92 320.752 1197.9 320.877 1198.85 320.877C1199.8 320.877 1201.73 320.901 1202 318.363H1198.85Z" fill="#5DC08D"/>
<path d="M1199.12 312.378C1199.12 312.378 1197.38 313.712 1197.64 314.308C1197.91 314.904 1199.12 314.809 1199.12 314.809" stroke="#5DC08D" stroke-width="0.4658" stroke-miterlimit="10" stroke-linecap="round" stroke-linejoin="round"/>
<path d="M1213.19 301.308C1213.19 301.308 1215.39 299.472 1214.48 296.888C1213.57 294.304 1211.6 294.847 1211.6 294.847C1211.6 294.847 1212.92 293.147 1210.66 291.379C1208.4 289.611 1206.29 292.213 1206.29 292.213C1206.29 292.213 1206.17 290.359 1204.53 289.475C1202.89 288.59 1200.85 290.903 1200.85 290.903C1200.85 290.903 1200.57 288.999 1198.03 288.727C1195.48 288.455 1192.65 292.604 1192.65 292.604C1192.65 292.604 1193.17 290.496 1190.07 290.428C1187.26 290.366 1186.84 293.113 1186.78 293.608C1186.07 293.764 1185.3 294.279 1184.72 295.596C1183.99 297.25 1184.53 298.572 1185.22 299.467C1184.99 299.89 1184.81 300.482 1184.73 301.331C1184.47 304.029 1184.96 305.463 1186.8 306.74C1187.32 307.322 1187.55 307.217 1187.55 307.217C1187.55 307.217 1187.21 302.286 1188.29 299.155C1188.45 298.688 1188.65 298.27 1188.88 297.905C1189.32 298.211 1190 298.432 1191.06 298.451C1192.78 298.481 1193.89 298.002 1194.59 297.459C1195.29 298.136 1196.38 298.646 1198.03 298.247C1198.25 298.194 1198.45 298.136 1198.63 298.077C1199.39 299.091 1200.66 300.051 1202.68 299.812C1203.45 299.72 1203.98 299.506 1204.33 299.222C1205.09 299.664 1205.96 299.927 1206.8 299.694C1207.41 300.624 1208.45 301.548 1210.03 301.341C1210.16 304.069 1210.41 308.082 1210.89 308.746C1210.89 308.746 1213.91 306.749 1214.32 304.164C1214.73 301.58 1213.19 301.308 1213.19 301.308Z" fill="#5DC08D"/>
<path d="M1177.92 301.929C1177.92 301.929 1219.24 298.834 1222.96 292.096C1226.68 285.358 1189.05 293.333 1180.45 296.488C1171.85 299.642 1171.54 301.69 1177.92 301.929Z" fill="#5DC08D"/>
<path d="M1207.85 283.597C1206.71 282.459 1205.24 281.729 1203.76 281.263C1199.79 280.022 1195.39 280.598 1191.76 282.832C1190.39 283.67 1189.09 284.762 1188.19 286.166C1186.08 289.467 1184.64 295.431 1184.01 298.482L1185.99 298.512C1195.48 298.655 1204.91 296.891 1213.7 293.323C1212.52 290.51 1210.53 286.273 1207.85 283.597Z" fill="#5DC08D"/>
<path d="M1212.55 290.752C1203.94 294.142 1194.76 295.831 1185.5 295.69L1184.65 295.678C1184.39 296.74 1184.18 297.706 1184.02 298.483L1185.99 298.513C1195.49 298.656 1204.91 296.892 1213.71 293.324C1213.38 292.554 1212.99 291.674 1212.55 290.752Z" fill="#5DC08D"/>
<path d="M1321.61 369.584H1086.78L1086.02 352.811H1322.37L1321.61 369.584Z" fill="#13A248"/>
<path d="M1342.8 416.186L1343.47 403.869L1321.61 369.584H1204.19H1086.78L1064.91 403.869L1065.58 416.186L1056.26 425.405L1058.35 461.147H1350.03L1352.12 425.405L1342.8 416.186Z" fill="#13A248"/>
<path d="M1062.67 429.966C1062.72 430.829 1061.99 431.527 1061.04 431.527C1060.09 431.527 1059.28 430.829 1059.23 429.966C1059.18 429.102 1059.91 428.401 1060.86 428.401C1061.82 428.401 1062.63 429.102 1062.67 429.966Z" fill="#5DC08D"/>
<path d="M1345.71 429.966C1345.66 430.829 1346.4 431.527 1347.35 431.527C1348.3 431.527 1349.11 430.829 1349.16 429.966C1349.21 429.102 1348.48 428.401 1347.52 428.401C1346.57 428.401 1345.76 429.102 1345.71 429.966Z" fill="#5DC08D"/>
<path d="M1254.41 400.494H1153.98L1169.81 373.723H1238.57L1254.41 400.494Z" fill="#5DC08D"/>
<path d="M1092.9 373.723L1078.45 400.494H1144.97L1161.3 373.723H1092.9Z" fill="#5DC08D"/>
<path d="M1315.49 373.723L1329.95 400.494H1263.42L1247.09 373.723H1315.49Z" fill="#5DC08D"/>
<path d="M1075.88 416.19L1066.68 425.667H1137.94L1144.5 416.19H1075.88Z" fill="#5DC08D"/>
<path d="M1332.51 416.19L1341.71 425.667H1270.45L1263.88 416.19H1332.51Z" fill="#5DC08D"/>
<path d="M1252.53 416.19H1204.19H1155.86L1149.26 425.667H1204.19H1259.13L1252.53 416.19Z" fill="#5DC08D"/>
<path d="M1151.21 265.983H1262C1263.63 265.983 1264.92 264.662 1264.89 263.033L1264.39 237.147H1148.82L1148.31 263.033C1148.28 264.661 1149.58 265.983 1151.21 265.983Z" fill="#13A248"/>
<path d="M1204.19 233.728H1029.63L1036.57 242.055H1204.19H1371.81L1378.76 233.728H1204.19Z" fill="#5DC08D"/>
<path d="M1063.77 169.761L1029.63 233.728H1079.5L1103.89 169.761H1063.77Z" fill="#13A248"/>
<path d="M1103.89 169.761L1079.5 233.728H1129.38L1144.01 169.761H1103.89Z" fill="#13A248"/>
<path d="M1144.01 169.761L1129.38 233.728H1179.26L1184.13 169.761H1144.01Z" fill="#13A248"/>
<path d="M1184.13 169.761L1179.26 233.728H1229.13L1224.26 169.761H1184.13Z" fill="#13A248"/>
<path d="M1224.26 169.761L1229.13 233.728H1279.01L1264.38 169.761H1224.26Z" fill="#13A248"/>
<path d="M1264.38 169.761L1279.01 233.728H1328.88L1304.5 169.761H1264.38Z" fill="#13A248"/>
<path d="M1304.5 169.761L1328.89 233.728H1378.76L1344.62 169.761H1304.5Z" fill="#13A248"/>
<path d="M1086.74 368.597H1321.65" stroke="#13A248" stroke-miterlimit="10" stroke-linejoin="round"/>
<path d="M1064.97 404.831H1343.42" stroke="#13A248" stroke-miterlimit="10" stroke-linejoin="round"/>
<path d="M1056.29 425.917H1352.09" stroke="#13A248" stroke-miterlimit="10" stroke-linejoin="round"/>
<path d="M1056.98 437.661H1351.4" stroke="#13A248" stroke-miterlimit="10" stroke-linejoin="round"/>
<mask id="mask0_352_4420" style="mask-type:luminance" maskUnits="userSpaceOnUse" x="1078" y="366" width="88" height="35">
<path d="M1088 366.178L1078.45 400.494H1144.97L1165.9 366.178H1088Z" fill="white"/>
</mask>
<g mask="url(#mask0_352_4420)">
<path d="M1099.01 374.485C1104.08 381.027 1104.11 384.061 1102.2 385.288C1100.3 386.514 1097.17 385.474 1092.1 378.955C1087 372.402 1086.94 369.34 1088.86 368.098C1090.77 366.854 1093.92 367.909 1099.01 374.485Z" fill="#13A248"/>
<path d="M1097.32 374.14C1096.68 373.041 1094.67 370.02 1092.86 369.522C1091.8 369.231 1090.45 368.416 1089.51 367.79C1089.28 367.867 1089.06 367.966 1088.86 368.098C1088.29 368.47 1087.9 369.007 1087.76 369.749C1088.21 370.772 1088.88 371.685 1089.62 372.462C1090.93 373.828 1092.02 376.709 1093.2 378.125C1094.38 379.54 1096.06 381.408 1097.07 383.056C1097.62 383.952 1098.78 384.911 1099.72 385.598C1100.02 385.675 1100.3 385.724 1100.56 385.732C1100.08 385.252 1099.04 384.41 1098.27 383.132C1097.49 381.851 1095.53 380.765 1094.83 378.706C1094.13 376.644 1091.56 374.014 1090.24 372.06C1089.39 370.808 1088.92 369.382 1088.68 368.512C1089.47 369.696 1090.63 370.935 1091.65 371.874C1093.09 373.205 1095.52 376.679 1096.11 378.215C1096.7 379.748 1098.92 382.457 1099.96 383.487C1100.59 384.109 1101.08 385.02 1101.37 385.647C1101.67 385.572 1101.95 385.452 1102.2 385.288C1102.26 385.252 1102.31 385.209 1102.36 385.17C1101.66 384.857 1101.32 383.894 1100.55 383.158C1099.71 382.357 1098.43 379.098 1097.11 377.697C1095.79 376.294 1094.21 372.561 1091.96 370.788C1091.1 370.109 1090.4 369.329 1089.87 368.623C1090.63 369.057 1091.55 369.545 1092.47 370.144C1094.34 371.357 1096.82 373.918 1097.56 375.856C1098.29 377.792 1101.25 380.12 1101.72 382.636C1101.94 383.801 1102.29 384.523 1102.6 384.977C1102.89 384.7 1103.11 384.359 1103.24 383.942C1103.06 383.392 1102.8 382.81 1102.41 382.4C1101.47 381.399 1100.78 378.183 1099.67 376.927C1098.57 375.669 1097.95 375.238 1097.32 374.14Z" fill="#13A248"/>
<path d="M1108.93 375.247C1112.51 382.531 1111.89 385.486 1109.74 386.333C1107.59 387.178 1104.73 385.599 1101.13 378.334C1097.51 371.027 1098.13 368.037 1100.29 367.178C1102.45 366.32 1105.33 367.922 1108.93 375.247Z" fill="#13A248"/>
<path d="M1107.33 374.603C1106.95 373.419 1105.61 370.113 1103.94 369.298C1102.95 368.821 1101.8 367.782 1101 366.999C1100.76 367.031 1100.52 367.087 1100.29 367.178C1099.64 367.435 1099.14 367.887 1098.84 368.583C1099.07 369.661 1099.53 370.67 1100.09 371.563C1101.09 373.132 1101.55 376.134 1102.4 377.727C1103.26 379.319 1104.51 381.441 1105.15 383.227C1105.5 384.2 1106.44 385.343 1107.22 386.183C1107.5 386.311 1107.76 386.409 1108.02 386.466C1107.65 385.911 1106.81 384.905 1106.32 383.521C1105.83 382.134 1104.13 380.72 1103.89 378.589C1103.64 376.455 1101.68 373.429 1100.79 371.286C1100.22 369.912 1100.07 368.438 1100.03 367.55C1100.55 368.845 1101.43 370.264 1102.23 371.363C1103.37 372.922 1105.01 376.744 1105.26 378.345C1105.51 379.945 1107.11 382.982 1107.92 384.173C1108.41 384.893 1108.69 385.868 1108.84 386.531C1109.15 386.512 1109.45 386.446 1109.74 386.333C1109.8 386.308 1109.86 386.275 1109.92 386.246C1109.3 385.814 1109.17 384.816 1108.57 383.962C1107.91 383.03 1107.36 379.627 1106.36 378.024C1105.36 376.418 1104.61 372.5 1102.77 370.363C1102.06 369.544 1101.54 368.658 1101.17 367.873C1101.83 368.435 1102.63 369.077 1103.41 369.828C1105 371.35 1106.89 374.293 1107.2 376.313C1107.5 378.33 1109.91 381.131 1109.84 383.665C1109.81 384.837 1109.99 385.602 1110.19 386.1C1110.54 385.884 1110.83 385.592 1111.05 385.209C1110.99 384.642 1110.86 384.027 1110.57 383.56C1109.86 382.415 1109.87 379.162 1109.05 377.74C1108.23 376.318 1107.72 375.785 1107.33 374.603Z" fill="#13A248"/>
<path d="M1118.99 375.471C1122.1 382.914 1121.28 385.827 1119.08 386.559C1116.87 387.291 1114.12 385.569 1110.99 378.141C1107.84 370.67 1108.65 367.723 1110.86 366.98C1113.08 366.237 1115.86 367.986 1118.99 375.471Z" fill="#13A248"/>
<path d="M1117.43 374.746C1117.12 373.546 1116 370.183 1114.37 369.283C1113.42 368.757 1112.33 367.66 1111.59 366.84C1111.34 366.858 1111.09 366.902 1110.86 366.981C1110.2 367.203 1109.67 367.628 1109.32 368.306C1109.48 369.393 1109.88 370.422 1110.38 371.34C1111.28 372.955 1111.54 375.971 1112.3 377.603C1113.05 379.234 1114.17 381.413 1114.69 383.227C1114.97 384.214 1115.84 385.402 1116.57 386.279C1116.83 386.422 1117.09 386.534 1117.35 386.603C1117.01 386.032 1116.24 384.984 1115.84 383.58C1115.44 382.173 1113.83 380.675 1113.72 378.54C1113.61 376.401 1111.85 373.282 1111.1 371.101C1110.62 369.703 1110.56 368.226 1110.57 367.337C1111.01 368.656 1111.8 370.115 1112.53 371.253C1113.57 372.866 1114.96 376.759 1115.11 378.369C1115.26 379.976 1116.66 383.085 1117.39 384.314C1117.83 385.056 1118.05 386.042 1118.16 386.71C1118.48 386.708 1118.78 386.658 1119.08 386.56C1119.14 386.539 1119.2 386.509 1119.26 386.483C1118.67 386.021 1118.6 385.02 1118.06 384.137C1117.46 383.175 1117.13 379.756 1116.23 378.107C1115.34 376.455 1114.84 372.511 1113.14 370.286C1112.48 369.433 1112.02 368.522 1111.7 367.721C1112.32 368.316 1113.08 368.997 1113.82 369.787C1115.3 371.386 1117 374.418 1117.18 376.446C1117.36 378.471 1119.59 381.388 1119.35 383.908C1119.24 385.074 1119.37 385.846 1119.55 386.353C1119.91 386.156 1120.22 385.88 1120.46 385.511C1120.44 384.942 1120.35 384.324 1120.09 383.842C1119.45 382.664 1119.67 379.423 1118.95 377.964C1118.22 376.502 1117.73 375.944 1117.43 374.746Z" fill="#13A248"/>
<path d="M1129.32 376.074C1130.12 383.953 1128.46 386.526 1126.11 386.671C1123.76 386.817 1121.59 384.482 1120.77 376.606C1119.94 368.682 1121.6 366.075 1123.97 365.926C1126.34 365.777 1128.52 368.147 1129.32 376.074Z" fill="#13A248"/>
<path d="M1128.03 374.99C1128.08 373.767 1128 370.278 1126.69 369.01C1125.93 368.267 1125.2 366.946 1124.72 365.975C1124.47 365.93 1124.22 365.91 1123.97 365.926C1123.26 365.97 1122.62 366.241 1122.08 366.801C1121.92 367.879 1121.99 368.96 1122.21 369.965C1122.6 371.732 1121.95 374.675 1122.2 376.424C1122.45 378.17 1122.88 380.529 1122.85 382.392C1122.83 383.406 1123.32 384.756 1123.76 385.777C1123.98 385.979 1124.2 386.151 1124.42 386.281C1124.27 385.651 1123.83 384.458 1123.86 383.018C1123.89 381.575 1122.77 379.741 1123.31 377.676C1123.84 375.608 1123.05 372.188 1122.98 369.918C1122.93 368.462 1123.31 367.037 1123.59 366.195C1123.62 367.562 1123.95 369.154 1124.32 370.424C1124.85 372.225 1125.04 376.289 1124.7 377.862C1124.37 379.433 1124.8 382.751 1125.15 384.106C1125.35 384.926 1125.27 385.922 1125.18 386.586C1125.48 386.662 1125.8 386.692 1126.11 386.672C1126.18 386.668 1126.25 386.655 1126.31 386.646C1125.87 386.056 1126.11 385.085 1125.85 384.105C1125.56 383.039 1126.25 379.693 1125.87 377.894C1125.49 376.092 1126.18 372.203 1125.19 369.652C1124.82 368.674 1124.64 367.689 1124.57 366.843C1124.99 367.568 1125.53 368.41 1126 369.348C1126.97 371.248 1127.71 374.568 1127.28 376.548C1126.85 378.525 1128.15 381.867 1127.16 384.211C1126.71 385.295 1126.61 386.065 1126.63 386.592C1127.04 386.496 1127.42 386.31 1127.76 386.019C1127.91 385.471 1128.01 384.857 1127.9 384.333C1127.63 383.051 1128.81 380.015 1128.54 378.442C1128.27 376.863 1127.97 376.21 1128.03 374.99Z" fill="#13A248"/>
<path d="M1139.25 378.448C1137.21 386.057 1134.72 387.967 1132.42 387.397C1130.13 386.828 1128.89 383.992 1130.9 376.371C1132.92 368.705 1135.44 366.766 1137.75 367.344C1140.06 367.922 1141.29 370.793 1139.25 378.448Z" fill="#13A248"/>
<path d="M1138.4 377.044C1138.88 375.918 1140.04 372.63 1139.25 371.05C1138.78 370.125 1138.55 368.668 1138.44 367.616C1138.22 367.499 1137.99 367.406 1137.75 367.344C1137.06 367.172 1136.35 367.231 1135.64 367.594C1135.1 368.551 1134.78 369.585 1134.64 370.591C1134.38 372.362 1132.72 374.922 1132.33 376.632C1131.95 378.34 1131.52 380.679 1130.83 382.413C1130.45 383.356 1130.44 384.766 1130.5 385.856C1130.63 386.11 1130.78 386.338 1130.95 386.527C1131.03 385.89 1131.03 384.643 1131.57 383.304C1132.11 381.962 1131.7 379.91 1132.94 378.138C1134.18 376.363 1134.65 372.926 1135.38 370.778C1135.85 369.401 1136.72 368.184 1137.29 367.48C1136.83 368.768 1136.58 370.358 1136.48 371.657C1136.35 373.5 1135.09 377.361 1134.21 378.732C1133.33 380.101 1132.57 383.337 1132.41 384.709C1132.32 385.537 1131.89 386.446 1131.56 387.039C1131.83 387.202 1132.11 387.322 1132.42 387.398C1132.49 387.415 1132.56 387.422 1132.62 387.434C1132.41 386.75 1132.99 385.913 1133.08 384.917C1133.18 383.83 1135.03 380.909 1135.31 379.112C1135.59 377.314 1137.62 373.882 1137.59 371.199C1137.58 370.171 1137.76 369.196 1137.99 368.383C1138.14 369.189 1138.35 370.137 1138.47 371.159C1138.71 373.227 1138.25 376.556 1137.13 378.278C1136.02 379.998 1136.07 383.513 1134.3 385.412C1133.48 386.29 1133.11 386.981 1132.94 387.479C1133.37 387.512 1133.8 387.454 1134.23 387.283C1134.56 386.816 1134.87 386.27 1134.95 385.747C1135.16 384.466 1137.36 381.982 1137.66 380.427C1137.96 378.87 1137.91 378.169 1138.4 377.044Z" fill="#13A248"/>
<path d="M1148.58 378.042C1145.91 385.48 1143.26 387.212 1141.01 386.488C1138.77 385.763 1137.77 382.854 1140.42 375.401C1143.08 367.904 1145.75 366.147 1148.01 366.881C1150.28 367.616 1151.27 370.56 1148.58 378.042Z" fill="#13A248"/>
<path d="M1147.85 376.586C1148.43 375.498 1149.87 372.303 1149.2 370.675C1148.81 369.721 1148.71 368.256 1148.69 367.2C1148.48 367.069 1148.26 366.96 1148.02 366.882C1147.34 366.663 1146.63 366.673 1145.89 366.985C1145.27 367.901 1144.87 368.908 1144.63 369.9C1144.23 371.645 1142.35 374.081 1141.83 375.758C1141.3 377.433 1140.68 379.733 1139.84 381.413C1139.38 382.327 1139.25 383.73 1139.22 384.821C1139.33 385.082 1139.46 385.319 1139.62 385.519C1139.75 384.891 1139.86 383.647 1140.51 382.35C1141.16 381.052 1140.92 378.979 1142.31 377.298C1143.7 375.614 1144.45 372.225 1145.36 370.136C1145.95 368.797 1146.92 367.644 1147.54 366.983C1146.98 368.235 1146.6 369.801 1146.39 371.088C1146.1 372.913 1144.52 376.672 1143.53 377.977C1142.53 379.281 1141.5 382.451 1141.23 383.807C1141.07 384.627 1140.56 385.503 1140.19 386.07C1140.44 386.251 1140.71 386.389 1141.01 386.487C1141.08 386.508 1141.15 386.52 1141.21 386.537C1141.06 385.841 1141.7 385.046 1141.88 384.061C1142.07 382.986 1144.17 380.202 1144.59 378.433C1145.02 376.66 1147.35 373.383 1147.53 370.708C1147.61 369.683 1147.87 368.725 1148.17 367.931C1148.25 368.744 1148.38 369.702 1148.41 370.728C1148.49 372.805 1147.74 376.088 1146.48 377.727C1145.23 379.363 1144.98 382.867 1143.06 384.637C1142.17 385.456 1141.74 386.118 1141.53 386.603C1141.95 386.664 1142.39 386.636 1142.83 386.496C1143.21 386.053 1143.56 385.531 1143.69 385.015C1143.99 383.754 1146.4 381.429 1146.83 379.903C1147.27 378.374 1147.27 377.672 1147.85 376.586Z" fill="#13A248"/>
<path d="M1157.99 378.132C1155.29 385.57 1152.63 387.301 1150.39 386.578C1148.14 385.854 1147.16 382.944 1149.83 375.491C1152.52 367.995 1155.2 366.238 1157.46 366.972C1159.72 367.707 1160.7 370.651 1157.99 378.132Z" fill="#13A248"/>
<path d="M1157.26 376.676C1157.85 375.588 1159.29 372.394 1158.63 370.765C1158.25 369.811 1158.15 368.346 1158.13 367.29C1157.92 367.159 1157.7 367.05 1157.46 366.971C1156.78 366.752 1156.07 366.762 1155.33 367.074C1154.71 367.99 1154.3 368.997 1154.07 369.989C1153.66 371.734 1151.77 374.17 1151.24 375.847C1150.71 377.522 1150.08 379.822 1149.23 381.502C1148.77 382.416 1148.64 383.819 1148.6 384.909C1148.71 385.17 1148.84 385.407 1149 385.607C1149.13 384.979 1149.24 383.736 1149.9 382.44C1150.56 381.141 1150.32 379.068 1151.72 377.388C1153.11 375.706 1153.88 372.315 1154.8 370.226C1155.39 368.888 1156.36 367.735 1156.99 367.073C1156.42 368.325 1156.03 369.89 1155.82 371.177C1155.52 373.002 1153.93 376.761 1152.93 378.066C1151.94 379.37 1150.89 382.54 1150.62 383.896C1150.45 384.716 1149.94 385.591 1149.56 386.159C1149.81 386.34 1150.09 386.479 1150.39 386.576C1150.45 386.597 1150.52 386.609 1150.59 386.626C1150.44 385.931 1151.08 385.136 1151.26 384.15C1151.46 383.076 1153.56 380.291 1154 378.522C1154.43 376.75 1156.77 373.472 1156.97 370.798C1157.04 369.773 1157.31 368.815 1157.61 368.021C1157.69 368.834 1157.82 369.792 1157.85 370.818C1157.91 372.895 1157.15 376.178 1155.89 377.816C1154.63 379.452 1154.37 382.956 1152.44 384.726C1151.55 385.545 1151.12 386.208 1150.9 386.692C1151.33 386.753 1151.76 386.725 1152.21 386.585C1152.58 386.142 1152.94 385.62 1153.07 385.104C1153.38 383.843 1155.8 381.518 1156.23 379.992C1156.67 378.465 1156.68 377.764 1157.26 376.676Z" fill="#13A248"/>
<path d="M1149.12 396.68C1147.45 404.267 1145.07 406.254 1142.77 405.789C1140.47 405.325 1139.11 402.58 1140.76 394.983C1142.41 387.34 1144.81 385.323 1147.13 385.796C1149.45 386.269 1150.8 389.048 1149.12 396.68Z" fill="#13A248"/>
<path d="M1148.22 395.333C1148.65 394.202 1149.65 390.911 1148.79 389.387C1148.28 388.494 1147.99 387.068 1147.84 386.035C1147.61 385.929 1147.38 385.846 1147.13 385.796C1146.44 385.655 1145.74 385.743 1145.06 386.13C1144.56 387.097 1144.3 388.13 1144.2 389.128C1144.02 390.884 1142.5 393.478 1142.19 395.18C1141.89 396.881 1141.57 399.203 1140.97 400.941C1140.64 401.887 1140.69 403.278 1140.8 404.35C1140.94 404.594 1141.1 404.813 1141.27 404.992C1141.32 404.361 1141.27 403.131 1141.74 401.788C1142.22 400.443 1141.72 398.438 1142.86 396.639C1144.01 394.836 1144.32 391.429 1144.95 389.281C1145.35 387.904 1146.15 386.667 1146.68 385.949C1146.29 387.238 1146.12 388.816 1146.08 390.102C1146.03 391.924 1144.95 395.783 1144.15 397.171C1143.34 398.558 1142.73 401.779 1142.64 403.138C1142.59 403.96 1142.2 404.873 1141.91 405.471C1142.17 405.621 1142.46 405.728 1142.77 405.789C1142.84 405.803 1142.91 405.807 1142.97 405.816C1142.73 405.15 1143.26 404.301 1143.31 403.315C1143.36 402.24 1145.06 399.282 1145.25 397.499C1145.45 395.714 1147.31 392.246 1147.15 389.602C1147.09 388.588 1147.23 387.62 1147.42 386.809C1147.6 387.597 1147.86 388.523 1148.02 389.525C1148.36 391.554 1148.05 394.856 1147.02 396.6C1146 398.341 1146.21 401.805 1144.54 403.751C1143.77 404.652 1143.44 405.347 1143.29 405.846C1143.71 405.86 1144.14 405.784 1144.56 405.599C1144.87 405.123 1145.15 404.572 1145.21 404.053C1145.35 402.782 1147.42 400.239 1147.64 398.695C1147.87 397.15 1147.79 396.462 1148.22 395.333Z" fill="#13A248"/>
<path d="M1137.35 399.682C1137.39 407.433 1135.51 409.815 1133.16 409.775C1130.82 409.735 1128.9 407.286 1128.83 399.535C1128.76 391.735 1130.65 389.319 1133.02 389.36C1135.38 389.401 1137.3 391.883 1137.35 399.682Z" fill="#13A248"/>
<path d="M1136.17 398.522C1136.34 397.333 1136.59 393.922 1135.42 392.582C1134.73 391.797 1134.13 390.451 1133.75 389.465C1133.51 389.401 1133.27 389.363 1133.02 389.358C1132.31 389.346 1131.65 389.559 1131.07 390.065C1130.8 391.104 1130.77 392.165 1130.89 393.163C1131.11 394.918 1130.19 397.741 1130.27 399.467C1130.35 401.191 1130.55 403.528 1130.34 405.343C1130.23 406.331 1130.58 407.688 1130.93 408.719C1131.12 408.933 1131.32 409.118 1131.53 409.262C1131.44 408.636 1131.12 407.436 1131.29 406.033C1131.45 404.626 1130.52 402.749 1131.24 400.775C1131.97 398.798 1131.51 395.399 1131.65 393.177C1131.74 391.752 1132.25 390.391 1132.61 389.59C1132.51 390.928 1132.69 392.508 1132.94 393.776C1133.28 395.574 1133.09 399.556 1132.61 401.066C1132.13 402.573 1132.24 405.845 1132.45 407.195C1132.58 408.012 1132.41 408.977 1132.25 409.618C1132.55 409.717 1132.85 409.769 1133.16 409.774C1133.23 409.775 1133.3 409.767 1133.37 409.764C1132.99 409.154 1133.32 408.225 1133.15 407.249C1132.96 406.185 1133.96 402.973 1133.76 401.188C1133.56 399.401 1134.61 395.658 1133.87 393.091C1133.59 392.108 1133.51 391.133 1133.52 390.301C1133.87 391.042 1134.32 391.904 1134.7 392.857C1135.48 394.787 1135.9 398.085 1135.29 399.984C1134.67 401.88 1135.63 405.243 1134.44 407.455C1133.89 408.478 1133.72 409.221 1133.68 409.736C1134.1 409.674 1134.5 409.523 1134.86 409.264C1135.06 408.741 1135.21 408.15 1135.16 407.629C1135.01 406.356 1136.47 403.486 1136.35 401.928C1136.23 400.37 1136 399.71 1136.17 398.522Z" fill="#13A248"/>
<path d="M1126.67 399.423C1124.9 406.958 1122.49 408.896 1120.2 408.39C1117.91 407.884 1116.59 405.123 1118.33 397.575C1120.09 389.984 1122.51 388.017 1124.82 388.531C1127.13 389.046 1128.45 391.843 1126.67 399.423Z" fill="#13A248"/>
<path d="M1125.78 398.062C1126.23 396.942 1127.27 393.679 1126.43 392.142C1125.94 391.243 1125.66 389.815 1125.52 388.783C1125.3 388.673 1125.07 388.587 1124.82 388.531C1124.13 388.377 1123.43 388.452 1122.74 388.826C1122.23 389.781 1121.96 390.806 1121.84 391.799C1121.65 393.547 1120.08 396.104 1119.76 397.797C1119.43 399.488 1119.09 401.799 1118.46 403.52C1118.11 404.458 1118.15 405.846 1118.24 406.917C1118.38 407.163 1118.54 407.384 1118.71 407.566C1118.77 406.938 1118.73 405.71 1119.22 404.38C1119.72 403.047 1119.24 401.038 1120.41 399.264C1121.58 397.488 1121.93 394.096 1122.59 391.965C1123.01 390.599 1123.83 389.38 1124.37 388.675C1123.96 389.954 1123.77 391.524 1123.71 392.805C1123.63 394.621 1122.51 398.45 1121.69 399.82C1120.86 401.188 1120.21 404.39 1120.1 405.744C1120.04 406.562 1119.64 407.467 1119.34 408.058C1119.6 408.212 1119.89 408.324 1120.2 408.391C1120.26 408.406 1120.33 408.412 1120.4 408.422C1120.17 407.753 1120.71 406.917 1120.77 405.933C1120.84 404.862 1122.57 401.944 1122.79 400.169C1123.01 398.392 1124.91 394.968 1124.79 392.328C1124.74 391.316 1124.89 390.353 1125.09 389.548C1125.27 390.338 1125.51 391.266 1125.66 392.267C1125.97 394.297 1125.62 397.584 1124.57 399.304C1123.52 401.022 1123.68 404.481 1121.99 406.391C1121.21 407.274 1120.87 407.962 1120.72 408.456C1121.14 408.478 1121.56 408.411 1121.99 408.233C1122.3 407.764 1122.59 407.221 1122.65 406.704C1122.81 405.439 1124.91 402.942 1125.16 401.406C1125.41 399.868 1125.33 399.18 1125.78 398.062Z" fill="#13A248"/>
<path d="M1107.29 398.015C1106.53 405.718 1108.19 408.333 1110.53 408.598C1112.86 408.862 1115 406.678 1115.77 398.98C1116.56 391.236 1114.9 388.586 1112.54 388.317C1110.19 388.049 1108.04 390.265 1107.29 398.015Z" fill="#13A248"/>
<path d="M1108.56 397.016C1108.5 395.812 1108.57 392.387 1109.86 391.208C1110.61 390.517 1111.33 389.257 1111.8 388.327C1112.04 388.295 1112.29 388.289 1112.54 388.318C1113.24 388.398 1113.88 388.698 1114.41 389.276C1114.59 390.344 1114.52 391.403 1114.31 392.379C1113.93 394.096 1114.59 397.022 1114.35 398.728C1114.11 400.431 1113.7 402.729 1113.74 404.56C1113.76 405.557 1113.29 406.859 1112.85 407.839C1112.64 408.027 1112.42 408.185 1112.2 408.301C1112.35 407.69 1112.78 406.54 1112.74 405.123C1112.7 403.703 1113.8 401.958 1113.26 399.901C1112.72 397.841 1113.48 394.52 1113.55 392.292C1113.59 390.864 1113.2 389.444 1112.92 388.601C1112.9 389.944 1112.58 391.492 1112.22 392.72C1111.7 394.462 1111.53 398.448 1111.87 400.011C1112.21 401.572 1111.8 404.811 1111.47 406.126C1111.27 406.921 1111.35 407.904 1111.45 408.562C1111.15 408.621 1110.84 408.634 1110.53 408.599C1110.46 408.59 1110.39 408.574 1110.32 408.562C1110.76 408.004 1110.52 407.038 1110.77 406.089C1111.06 405.055 1110.35 401.731 1110.72 399.982C1111.08 398.231 1110.38 394.373 1111.35 391.917C1111.72 390.976 1111.89 390.017 1111.95 389.189C1111.53 389.879 1111.01 390.679 1110.54 391.576C1109.6 393.394 1108.87 396.618 1109.31 398.586C1109.75 400.551 1108.48 403.77 1109.47 406.124C1109.92 407.214 1110.03 407.976 1110.01 408.492C1109.6 408.376 1109.22 408.174 1108.88 407.869C1108.73 407.323 1108.63 406.715 1108.74 406.205C1109 404.958 1107.81 401.914 1108.07 400.38C1108.33 398.846 1108.63 398.22 1108.56 397.016Z" fill="#13A248"/>
<path d="M1097.05 399.726C1098.82 407.365 1101.23 409.447 1103.52 409.08C1105.81 408.714 1107.13 406.034 1105.39 398.387C1103.63 390.695 1101.21 388.582 1098.9 388.954C1096.59 389.327 1095.27 392.042 1097.05 399.726Z" fill="#13A248"/>
<path d="M1097.94 398.42C1097.49 397.274 1096.45 393.949 1097.29 392.465C1097.79 391.596 1098.06 390.185 1098.2 389.162C1098.42 389.066 1098.65 388.994 1098.9 388.954C1099.59 388.843 1100.29 388.96 1100.98 389.376C1101.49 390.361 1101.77 391.402 1101.88 392.401C1102.08 394.16 1103.64 396.811 1103.96 398.522C1104.29 400.232 1104.63 402.562 1105.26 404.321C1105.6 405.278 1105.57 406.663 1105.48 407.728C1105.33 407.966 1105.18 408.176 1105.01 408.348C1104.95 407.717 1104.99 406.492 1104.5 405.133C1104 403.772 1104.48 401.792 1103.31 399.949C1102.14 398.104 1101.79 394.692 1101.13 392.523C1100.71 391.133 1099.89 389.864 1099.35 389.126C1099.76 390.429 1099.96 392.01 1100.01 393.293C1100.09 395.113 1101.21 399.008 1102.03 400.426C1102.86 401.843 1103.51 405.083 1103.62 406.442C1103.68 407.264 1104.08 408.191 1104.38 408.801C1104.11 408.938 1103.83 409.033 1103.52 409.082C1103.45 409.092 1103.39 409.094 1103.32 409.1C1103.55 408.446 1103.01 407.577 1102.95 406.592C1102.88 405.518 1101.15 402.496 1100.93 400.71C1100.71 398.92 1098.81 395.383 1098.93 392.752C1098.98 391.743 1098.83 390.772 1098.63 389.954C1098.45 390.733 1098.21 391.646 1098.06 392.638C1097.75 394.647 1098.1 397.954 1099.15 399.737C1100.19 401.518 1100.03 404.964 1101.72 406.976C1102.5 407.906 1102.85 408.615 1103 409.118C1102.58 409.115 1102.15 409.021 1101.73 408.818C1101.41 408.331 1101.13 407.77 1101.06 407.249C1100.9 405.975 1098.8 403.352 1098.55 401.802C1098.31 400.248 1098.39 399.565 1097.94 398.42Z" fill="#13A248"/>
<path d="M1084.7 395.109C1086.5 402.775 1088.93 404.865 1091.22 404.497C1093.52 404.129 1094.82 401.44 1093.04 393.765C1091.25 386.046 1088.81 383.924 1086.49 384.297C1084.18 384.673 1082.88 387.398 1084.7 395.109Z" fill="#13A248"/>
<path d="M1085.58 393.799C1085.12 392.649 1084.06 389.312 1084.9 387.822C1085.39 386.95 1085.66 385.534 1085.79 384.508C1086.01 384.411 1086.25 384.338 1086.49 384.298C1087.18 384.186 1087.88 384.304 1088.58 384.721C1089.09 385.71 1089.37 386.754 1089.49 387.758C1089.7 389.523 1091.27 392.183 1091.61 393.901C1091.94 395.616 1092.3 397.955 1092.94 399.72C1093.29 400.682 1093.26 402.072 1093.17 403.14C1093.03 403.379 1092.88 403.59 1092.7 403.762C1092.64 403.129 1092.67 401.899 1092.17 400.535C1091.67 399.168 1092.14 397.182 1090.96 395.332C1089.78 393.479 1089.41 390.056 1088.74 387.879C1088.31 386.483 1087.49 385.21 1086.94 384.47C1087.36 385.778 1087.56 387.364 1087.62 388.652C1087.71 390.478 1088.85 394.388 1089.69 395.811C1090.52 397.233 1091.19 400.484 1091.3 401.848C1091.37 402.673 1091.77 403.603 1092.08 404.215C1091.81 404.353 1091.52 404.448 1091.22 404.497C1091.15 404.508 1091.08 404.509 1091.01 404.515C1091.24 403.859 1090.7 402.987 1090.63 401.998C1090.56 400.92 1088.81 397.886 1088.58 396.094C1088.35 394.299 1086.43 390.748 1086.54 388.107C1086.58 387.096 1086.43 386.12 1086.22 385.3C1086.05 386.081 1085.82 386.997 1085.67 387.994C1085.37 390.01 1085.74 393.329 1086.79 395.118C1087.85 396.905 1087.71 400.364 1089.41 402.383C1090.19 403.316 1090.54 404.027 1090.7 404.532C1090.27 404.529 1089.85 404.434 1089.42 404.231C1089.1 403.742 1088.81 403.179 1088.75 402.656C1088.58 401.378 1086.47 398.746 1086.21 397.191C1085.95 395.633 1086.03 394.948 1085.58 393.799Z" fill="#13A248"/>
</g>
<path d="M1144.43 352.812H1116.71L1109.46 318.397H1137.19L1144.43 352.812Z" fill="#5DC08D"/>
<path d="M1131.16 352.812H1103.43L1109.46 318.397H1137.19L1131.16 352.812Z" fill="#13A248"/>
<path d="M1133.58 318.398L1127.54 352.812H1131.16L1137.2 318.398H1133.58Z" fill="#13A248"/>
<path d="M1143.59 389.169H1141.36V400.494H1143.59V389.169Z" fill="#13A248"/>
<path d="M1143.59 391.745V389.169H1141.36V392.771L1143.59 391.745Z" fill="#13A248"/>
<path d="M1152.61 391.093H1133.43L1132.35 378.863H1153.69L1152.61 391.093Z" fill="#13A248"/>
<path d="M1151.64 378.863L1150.56 391.093H1152.61L1153.69 378.863H1151.64Z" fill="#13A248"/>
<path d="M1248.66 389.169H1246.44V400.494H1248.66V389.169Z" fill="#13A248"/>
<path d="M1248.66 391.745V389.169H1246.44V392.771L1248.66 391.745Z" fill="#13A248"/>
<path d="M1257.69 391.093H1238.5L1237.42 378.863H1258.77L1257.69 391.093Z" fill="#13A248"/>
<path d="M1256.72 378.863L1255.64 391.093H1257.69L1258.77 378.863H1256.72Z" fill="#13A248"/>
<path d="M1323.12 389.309H1320.9V400.493H1323.12V389.309Z" fill="#13A248"/>
<path d="M1323.12 391.853V389.309H1320.9V392.867L1323.12 391.853Z" fill="#13A248"/>
<path d="M1332.15 391.21H1312.96L1311.88 379.131H1333.23L1332.15 391.21Z" fill="#13A248"/>
<path d="M1331.18 379.131L1330.1 391.21H1332.15L1333.23 379.131H1331.18Z" fill="#13A248"/>
<path d="M1331.72 415.576H1329.5V425.667H1331.72V415.576Z" fill="#13A248"/>
<path d="M1331.72 417.87V415.575H1329.5V418.785L1331.72 417.87Z" fill="#13A248"/>
<path d="M1340.75 417.29H1321.56L1320.48 406.391H1341.83L1340.75 417.29Z" fill="#13A248"/>
<path d="M1339.78 406.391L1338.7 417.29H1340.75L1341.83 406.391H1339.78Z" fill="#13A248"/>
<path d="M1133.97 415.393H1131.74V425.485H1133.97V415.393Z" fill="#13A248"/>
<path d="M1133.97 417.688V415.393H1131.74V418.603L1133.97 417.688Z" fill="#13A248"/>
<path d="M1143 417.108H1123.81L1122.73 406.21H1144.08L1143 417.108Z" fill="#13A248"/>
<path d="M1142.02 406.21L1140.94 417.108H1143L1144.08 406.21H1142.02Z" fill="#13A248"/>
<path d="M1254.34 415.736H1252.11V425.827H1254.34V415.736Z" fill="#13A248"/>
<path d="M1254.34 418.032V415.736H1252.11V418.946L1254.34 418.032Z" fill="#13A248"/>
<path d="M1263.36 417.451H1244.18L1243.1 406.552H1264.44L1263.36 417.451Z" fill="#13A248"/>
<path d="M1262.39 406.552L1261.31 417.451H1263.36L1264.44 406.552H1262.39Z" fill="#13A248"/>
</g>
<defs>
<clipPath id="clip0_352_4420">
<rect width="1440" height="444" fill="white"/>
</clipPath>
</defs>
</svg>
